<?xml version="1.0" encoding="UTF-8"?><svg id="Layer_1" xmlns="http://www.w3.org/2000/svg" viewBox="0 0 205.06 396.7"><defs><style>.cls-1{fill:#ffaf5f;}.cls-2{fill:T.dark;}.cls-3{fill:#999;}</style></defs><path class="cls-1" d="M102.21,83.08c-12.68,0-34.14-2.87-34.14-13.62s21.46-13.62,34.14-13.62,34.15,2.87,34.15,13.62-21.46,13.62-34.15,13.62ZM76.99,69.45c2.12,1.8,10.66,5.04,25.22,5.04s23.11-3.24,25.23-5.04c-2.12-1.8-10.66-5.04-25.23-5.04s-23.11,3.24-25.22,5.04Z"/><path class="cls-2" d="M102.13,178.79c-22.93,0-41.58-18.72-41.58-41.74s18.65-41.74,41.58-41.74,41.74,18.72,41.74,41.74-18.72,41.74-41.74,41.74ZM102.16,109.16c-15.38,0-27.88,12.51-27.88,27.89s12.51,27.89,27.88,27.89,28-12.51,28-27.89-12.56-27.89-28-27.89Z"/><path class="cls-2" d="M102.18,184.95c-23.49,0-42.6,17.59-42.6,39.2l-.13,39.2h85.53v-39.2c0-21.61-19.2-39.2-42.79-39.2ZM129.2,247.36c0,1.36-1.11,2.47-2.47,2.47h-49.03c-1.36,0-2.47-1.11-2.47-2.47v-23.25c0-13.85,12.08-25.17,26.88-25.17s27.09,11.31,27.09,25.17v23.25Z"/><path class="cls-1" d="M48.38,339.01l-.66,1.71h-1.88l3.03-7.52h2.34l3.18,7.52h-1.97l-.7-1.71h-3.35ZM51.22,337.54c-.7-1.72-1.04-2.6-1.22-3.18h-.01c-.17.56-.57,1.71-1.13,3.18h2.36Z"/><path class="cls-1" d="M63.39,338.33c-.35,1.32-1.39,2.55-3.76,2.55-2.69,0-3.98-1.86-3.98-3.91s1.43-3.93,4.08-3.93c2.3,0,3.45,1.28,3.67,2.54h-1.85c-.15-.43-.56-1.12-1.84-1.12-1.41,0-2.14,1.07-2.14,2.44s.67,2.57,2.15,2.57c1.07,0,1.54-.42,1.83-1.14h1.83Z"/><path class="cls-1" d="M67.58,334.65h-2.65v-1.45h7.11v1.45h-2.64v6.07h-1.83v-6.07Z"/><path class="cls-1" d="M77.7,333.19h6.19v1.45h-4.36v1.71h4.07v1.46h-4.07v2.89h-1.83v-7.52Z"/><path class="cls-1" d="M93.78,336.93c0,2.08-1.39,3.94-4.12,3.94-2.55,0-4.01-1.74-4.01-3.94,0-2.07,1.54-3.9,4.09-3.9s4.04,1.84,4.04,3.89ZM87.58,336.91c0,1.42.72,2.54,2.19,2.54s2.1-1.28,2.1-2.5c0-1.33-.65-2.49-2.17-2.49s-2.11,1.19-2.11,2.45Z"/><path class="cls-1" d="M97.91,337.81v2.9h-1.81v-7.52h4.09c1.73,0,2.73.86,2.73,2.15,0,.97-.56,1.54-1.31,1.78.31.12,1.11.42,1.11,1.77v.38c0,.52,0,1.1.1,1.45h-1.87c-.13-.33-.14-.78-.14-1.57v-.25c0-.76-.28-1.08-1.38-1.08h-1.53ZM97.91,336.45h1.88c.89,0,1.27-.32,1.27-.95,0-.59-.39-.93-1.25-.93h-1.9v1.88Z"/><path class="cls-1" d="M110.86,333.19v7.52h-1.82v-7.52h1.82Z"/><path class="cls-1" d="M120.58,337.83c0-1.3,0-2.64.05-3.48h-.01c-.37,1.39-1.08,3.59-1.97,6.36h-1.61c-.69-2.42-1.48-4.93-1.88-6.36h-.01c.06.87.12,2.33.12,3.62v2.74h-1.64v-7.52h2.64c.76,2.33,1.45,4.37,1.67,5.4h.01c.32-1.19,1-3.16,1.73-5.4h2.65v7.52h-1.76v-2.88Z"/><path class="cls-1" d="M125.11,333.19h3.89c1.75,0,2.91.88,2.91,2.36s-1.1,2.46-2.94,2.46h-2.03v2.7h-1.83v-7.52ZM126.94,336.6h1.89c.77,0,1.26-.26,1.26-1.01,0-.61-.37-.98-1.26-.98h-1.89v2Z"/><path class="cls-1" d="M134.92,339.01l-.66,1.71h-1.88l3.03-7.52h2.34l3.18,7.52h-1.97l-.7-1.71h-3.35ZM137.75,337.54c-.7-1.72-1.04-2.6-1.22-3.18h-.01c-.17.56-.57,1.71-1.13,3.18h2.36Z"/><path class="cls-1" d="M149.92,338.33c-.35,1.32-1.39,2.55-3.76,2.55-2.69,0-3.98-1.86-3.98-3.91s1.43-3.93,4.08-3.93c2.3,0,3.45,1.28,3.67,2.54h-1.85c-.15-.43-.56-1.12-1.84-1.12-1.41,0-2.14,1.07-2.14,2.44s.67,2.57,2.15,2.57c1.07,0,1.54-.42,1.83-1.14h1.83Z"/><path class="cls-1" d="M154.11,334.65h-2.65v-1.45h7.11v1.45h-2.64v6.07h-1.83v-6.07Z"/><path class="cls-2" d="M53.52,280.25v27.7c0,2.7.1,5.55.2,7.17h-6.63l-.34-3.54h-.1c-1.52,2.7-4.42,4.08-7.52,4.08-5.7,0-10.27-4.86-10.27-12.33-.05-8.1,5.01-12.77,10.76-12.77,2.95,0,5.26,1.03,6.34,2.7h.1v-13.02h7.47ZM46.05,301.28c0-.39-.05-.93-.1-1.33-.44-2.01-2.06-3.68-4.37-3.68-3.39,0-5.16,3.05-5.16,6.83,0,4.08,2.01,6.63,5.11,6.63,2.16,0,3.88-1.47,4.32-3.59.15-.54.2-1.08.2-1.72v-3.14Z"/><path class="cls-2" d="M80.79,302.85c0,8.79-6.24,12.82-12.67,12.82-7.02,0-12.43-4.62-12.43-12.38s5.11-12.72,12.82-12.72,12.28,5.06,12.28,12.28ZM63.4,303.09c0,4.13,1.72,7.22,4.91,7.22,2.9,0,4.77-2.9,4.77-7.22,0-3.59-1.38-7.22-4.77-7.22-3.59,0-4.91,3.68-4.91,7.22Z"/><path class="cls-3" d="M82.95,299.02c0-3.54-.1-5.85-.19-7.91h6.43l.25,4.42h.2c1.23-3.49,4.17-4.96,6.48-4.96.69,0,1.03,0,1.57.1v7.02c-.54-.1-1.18-.2-2.01-.2-2.75,0-4.62,1.47-5.11,3.78-.1.49-.15,1.08-.15,1.67v12.18h-7.47v-16.11Z"/><path class="cls-3" d="M106.88,284.43c0,2.06-1.57,3.73-4.03,3.73s-3.93-1.67-3.88-3.73c-.05-2.16,1.52-3.78,3.93-3.78s3.93,1.62,3.98,3.78ZM99.17,315.13v-24.02h7.47v24.02h-7.47Z"/><path class="cls-3" d="M133.11,291.11c-.1,1.52-.2,3.54-.2,7.12v13.41c0,4.62-.93,8.4-3.63,10.8-2.65,2.26-6.24,2.95-9.78,2.95-3.14,0-6.48-.64-8.64-1.87l1.47-5.65c1.52.88,4.17,1.82,6.98,1.82,3.54,0,6.24-1.92,6.24-6.34v-1.57h-.1c-1.43,2.01-3.73,3.14-6.48,3.14-5.94,0-10.17-4.81-10.17-11.74,0-7.71,5.01-12.62,10.91-12.62,3.29,0,5.36,1.43,6.58,3.39h.1l.25-2.85h6.48ZM125.45,300.88c0-.49-.05-.98-.15-1.38-.54-1.97-1.97-3.29-4.03-3.29-2.7,0-4.91,2.46-4.91,6.83,0,3.59,1.77,6.39,4.91,6.39,1.92,0,3.44-1.28,3.93-3.05.2-.54.25-1.33.25-1.97v-3.54Z"/><path class="cls-3" d="M136.46,280.25h7.47v13.71h.1c.79-1.03,1.77-1.82,2.95-2.46,1.08-.59,2.51-.93,3.88-.93,4.77,0,8.4,3.29,8.4,10.51v14.05h-7.47v-13.21c0-3.14-1.08-5.31-3.88-5.31-1.97,0-3.19,1.28-3.73,2.6-.2.49-.25,1.13-.25,1.67v14.24h-7.47v-34.88Z"/><path class="cls-3" d="M170.85,284.23v6.88h5.35v5.5h-5.35v8.7c0,2.9.69,4.22,2.95,4.22.93,0,1.67-.1,2.21-.2l.05,5.65c-.98.39-2.75.64-4.86.64-2.41,0-4.42-.83-5.6-2.06-1.38-1.42-2.06-3.73-2.06-7.12v-9.83h-3.19v-5.5h3.19v-5.21l7.32-1.67Z"/></svg>