<?xml version="1.0" encoding="UTF-8"?><svg id="Layer_1" xmlns="http://www.w3.org/2000/svg" viewBox="0 0 651.18 142.48"><defs><style>.cls-1{fill:#4d4e4e;}.cls-2{fill:#979797;}.cls-3{fill:#faad61;}</style></defs><path class="cls-1" d="M135.35,20.54v67.14c0,6.55.24,13.46.48,17.38h-16.07l-.83-8.57h-.24c-3.69,6.54-10.71,9.88-18.21,9.88-13.81,0-24.88-11.78-24.88-29.88-.11-19.64,12.14-30.95,26.07-30.95,7.15,0,12.74,2.5,15.36,6.55h.24v-31.55h18.09ZM117.26,71.49c0-.95-.12-2.26-.24-3.21-1.07-4.88-5-8.93-10.59-8.93-8.21,0-12.5,7.38-12.5,16.55,0,9.88,4.88,16.07,12.38,16.07,5.24,0,9.4-3.57,10.47-8.69.36-1.31.48-2.62.48-4.16v-7.62Z"/><path class="cls-1" d="M201.43,75.3c0,21.31-15.12,31.07-30.71,31.07-17.02,0-30.12-11.19-30.12-30s12.38-30.83,31.07-30.83,29.76,12.26,29.76,29.76ZM159.29,75.89c0,10,4.16,17.5,11.9,17.5,7.03,0,11.55-7.03,11.55-17.5,0-8.69-3.33-17.5-11.55-17.5-8.69,0-11.9,8.93-11.9,17.5Z"/><path class="cls-2" d="M206.68,66.02c0-8.57-.24-14.17-.47-19.17h15.59l.6,10.71h.48c2.98-8.45,10.12-12.02,15.71-12.02,1.67,0,2.5,0,3.81.24v17.02c-1.31-.24-2.86-.48-4.88-.48-6.67,0-11.19,3.57-12.38,9.17-.24,1.19-.36,2.62-.36,4.05v29.52h-18.09v-39.04Z"/><path class="cls-2" d="M264.66,30.66c0,5-3.81,9.05-9.76,9.05s-9.52-4.05-9.4-9.05c-.12-5.24,3.69-9.17,9.52-9.17s9.52,3.93,9.64,9.17ZM245.97,105.06v-58.21h18.09v58.21h-18.09Z"/><path class="cls-2" d="M328.24,46.85c-.24,3.69-.48,8.57-.48,17.26v32.5c0,11.19-2.26,20.35-8.81,26.18-6.43,5.48-15.12,7.15-23.69,7.15-7.62,0-15.71-1.55-20.95-4.52l3.57-13.69c3.69,2.14,10.12,4.4,16.9,4.4,8.57,0,15.12-4.64,15.12-15.36v-3.81h-.24c-3.45,4.88-9.05,7.62-15.71,7.62-14.4,0-24.64-11.66-24.64-28.45,0-18.69,12.14-30.59,26.43-30.59,7.98,0,12.98,3.45,15.95,8.22h.23l.6-6.91h15.71ZM309.67,70.54c0-1.19-.12-2.38-.36-3.33-1.31-4.76-4.76-7.98-9.76-7.98-6.55,0-11.91,5.95-11.91,16.55,0,8.69,4.29,15.48,11.91,15.48,4.64,0,8.33-3.1,9.52-7.38.48-1.31.6-3.21.6-4.76v-8.57Z"/><path class="cls-2" d="M336.35,20.54h18.09v33.22h.24c1.91-2.5,4.28-4.4,7.15-5.95,2.62-1.43,6.07-2.26,9.4-2.26,11.55,0,20.36,7.98,20.36,25.47v34.05h-18.09v-32.02c0-7.62-2.62-12.86-9.4-12.86-4.76,0-7.74,3.1-9.05,6.31-.48,1.19-.6,2.74-.6,4.05v34.52h-18.09V20.54Z"/><path class="cls-2" d="M419.69,30.18v16.66h12.97v13.33h-12.97v21.07c0,7.02,1.67,10.24,7.14,10.24,2.26,0,4.05-.24,5.36-.48l.12,13.69c-2.38.96-6.67,1.55-11.79,1.55-5.83,0-10.71-2.02-13.57-5-3.33-3.45-5-9.05-5-17.26v-23.81h-7.74v-13.33h7.74v-12.62l17.73-4.05Z"/><path class="cls-3" d="M464.36,53.02l-1.52,3.97h-4.37l7.04-17.49h5.44l7.4,17.49h-4.59l-1.63-3.97h-7.78ZM470.96,49.62c-1.63-4.01-2.42-6.05-2.84-7.39h-.02c-.39,1.31-1.32,3.97-2.64,7.39h5.5Z"/><path class="cls-3" d="M499.26,51.44c-.81,3.07-3.24,5.92-8.73,5.92-6.25,0-9.26-4.32-9.26-9.1s3.32-9.13,9.49-9.13c5.36,0,8.03,2.98,8.54,5.9h-4.29c-.36-1-1.31-2.61-4.29-2.61-3.27,0-4.97,2.49-4.97,5.68s1.55,5.99,4.99,5.99c2.49,0,3.58-.97,4.26-2.65h4.27Z"/><path class="cls-3" d="M509,42.89h-6.15v-3.38h16.53v3.38h-6.13v14.11h-4.25v-14.11Z"/><path class="cls-3" d="M460.38,62.89h14.39v3.38h-10.15v3.98h9.46v3.4h-9.46v6.73h-4.24v-17.49Z"/><path class="cls-3" d="M497.79,71.58c0,4.84-3.23,9.17-9.59,9.17-5.93,0-9.32-4.05-9.32-9.16,0-4.81,3.59-9.07,9.51-9.07s9.4,4.29,9.4,9.06ZM483.35,71.54c0,3.31,1.67,5.9,5.08,5.9s4.88-2.97,4.88-5.81c0-3.1-1.51-5.79-5.05-5.79s-4.91,2.76-4.91,5.7Z"/><path class="cls-3" d="M507.38,73.64v6.74h-4.2v-17.49h9.52c4.03,0,6.34,1.99,6.34,5,0,2.26-1.31,3.59-3.04,4.14.72.28,2.59.97,2.59,4.11v.87c0,1.2-.02,2.55.22,3.37h-4.36c-.29-.77-.32-1.8-.32-3.66v-.57c0-1.77-.65-2.51-3.2-2.51h-3.55ZM507.38,70.46h4.37c2.06,0,2.96-.74,2.96-2.22,0-1.38-.91-2.17-2.91-2.17h-4.41v4.38Z"/><path class="cls-3" d="M464.62,86.24v17.49h-4.24v-17.49h4.24Z"/><path class="cls-3" d="M487.22,97.03c0-3.01.02-6.15.12-8.09h-.02c-.87,3.23-2.51,8.36-4.57,14.78h-3.74c-1.6-5.64-3.44-11.47-4.37-14.78h-.02c.13,2.03.29,5.43.29,8.41v6.37h-3.82v-17.49h6.13c1.76,5.41,3.37,10.16,3.89,12.56h.02c.74-2.76,2.32-7.35,4.02-12.56h6.16v17.49h-4.09v-6.7Z"/><path class="cls-3" d="M497.77,86.24h9.04c4.07,0,6.77,2.05,6.77,5.49s-2.55,5.72-6.84,5.72h-4.71v6.27h-4.27v-17.49ZM502.03,94.16h4.39c1.8,0,2.93-.61,2.93-2.35,0-1.41-.87-2.29-2.93-2.29h-4.39v4.64Z"/><path class="cls-3" d="M520.57,99.75l-1.52,3.97h-4.37l7.04-17.49h5.44l7.4,17.49h-4.59l-1.63-3.97h-7.78ZM527.17,96.35c-1.63-4.01-2.42-6.05-2.84-7.39h-.02c-.39,1.31-1.32,3.97-2.64,7.39h5.5Z"/><path class="cls-3" d="M555.47,98.17c-.81,3.07-3.24,5.92-8.73,5.92-6.25,0-9.26-4.32-9.26-9.1s3.32-9.13,9.49-9.13c5.36,0,8.03,2.98,8.54,5.9h-4.29c-.36-1-1.31-2.61-4.29-2.61-3.27,0-4.97,2.49-4.97,5.68s1.55,5.99,4.99,5.99c2.49,0,3.58-.97,4.26-2.65h4.27Z"/><path class="cls-3" d="M565.21,89.62h-6.15v-3.38h16.53v3.38h-6.13v14.11h-4.25v-14.11Z"/></svg>