<?xml version="1.0" encoding="UTF-8"?><svg id="Layer_1" xmlns="http://www.w3.org/2000/svg" viewBox="0 0 215.97 94.12"><defs><style>.cls-1{fill:#ffaf5f;}.cls-2{fill:T.dark;}.cls-3{fill:#999;}</style></defs><path class="cls-1" d="M53.84,75.5l-.66,1.71h-1.88l3.03-7.52h2.34l3.18,7.52h-1.97l-.7-1.71h-3.35ZM56.67,74.04c-.7-1.72-1.04-2.6-1.22-3.18h-.01c-.17.56-.57,1.71-1.13,3.18h2.36Z"/><path class="cls-1" d="M68.84,74.82c-.35,1.32-1.39,2.55-3.76,2.55-2.69,0-3.98-1.86-3.98-3.91s1.43-3.93,4.08-3.93c2.3,0,3.45,1.28,3.67,2.54h-1.85c-.15-.43-.56-1.12-1.84-1.12-1.41,0-2.14,1.07-2.14,2.44s.67,2.57,2.15,2.57c1.07,0,1.54-.42,1.83-1.14h1.83Z"/><path class="cls-1" d="M73.03,71.15h-2.65v-1.45h7.11v1.45h-2.64v6.07h-1.83v-6.07Z"/><path class="cls-1" d="M83.15,69.69h6.19v1.45h-4.36v1.71h4.07v1.46h-4.07v2.89h-1.83v-7.52Z"/><path class="cls-1" d="M99.24,73.43c0,2.08-1.39,3.94-4.12,3.94-2.55,0-4.01-1.74-4.01-3.94,0-2.07,1.54-3.9,4.09-3.9s4.04,1.84,4.04,3.89ZM93.03,73.41c0,1.42.72,2.54,2.19,2.54s2.1-1.28,2.1-2.5c0-1.33-.65-2.49-2.17-2.49s-2.11,1.19-2.11,2.45Z"/><path class="cls-1" d="M103.36,74.31v2.9h-1.81v-7.52h4.09c1.73,0,2.73.86,2.73,2.15,0,.97-.56,1.54-1.31,1.78.31.12,1.11.42,1.11,1.77v.38c0,.52,0,1.1.1,1.45h-1.87c-.13-.33-.14-.78-.14-1.57v-.25c0-.76-.28-1.08-1.38-1.08h-1.53ZM103.36,72.94h1.88c.89,0,1.27-.32,1.27-.95,0-.59-.39-.93-1.25-.93h-1.9v1.88Z"/><path class="cls-1" d="M116.31,69.69v7.52h-1.82v-7.52h1.82Z"/><path class="cls-1" d="M126.03,74.33c0-1.3,0-2.64.05-3.48h-.01c-.37,1.39-1.08,3.59-1.97,6.36h-1.61c-.69-2.42-1.48-4.93-1.88-6.36h-.01c.06.87.12,2.33.12,3.62v2.74h-1.64v-7.52h2.64c.76,2.33,1.45,4.37,1.67,5.4h.01c.32-1.19,1-3.16,1.73-5.4h2.65v7.52h-1.76v-2.88Z"/><path class="cls-1" d="M130.57,69.69h3.89c1.75,0,2.91.88,2.91,2.36s-1.1,2.46-2.94,2.46h-2.03v2.7h-1.83v-7.52ZM132.4,73.1h1.89c.77,0,1.26-.26,1.26-1.01,0-.61-.37-.98-1.26-.98h-1.89v2Z"/><path class="cls-1" d="M140.37,75.5l-.66,1.71h-1.88l3.03-7.52h2.34l3.18,7.52h-1.97l-.7-1.71h-3.35ZM143.21,74.04c-.7-1.72-1.04-2.6-1.22-3.18h-.01c-.17.56-.57,1.71-1.13,3.18h2.36Z"/><path class="cls-1" d="M155.38,74.82c-.35,1.32-1.39,2.55-3.76,2.55-2.69,0-3.98-1.86-3.98-3.91s1.43-3.93,4.08-3.93c2.3,0,3.45,1.28,3.67,2.54h-1.85c-.15-.43-.56-1.12-1.84-1.12-1.41,0-2.14,1.07-2.14,2.44s.67,2.57,2.15,2.57c1.07,0,1.54-.42,1.83-1.14h1.83Z"/><path class="cls-1" d="M159.57,71.15h-2.65v-1.45h7.11v1.45h-2.64v6.07h-1.83v-6.07Z"/><path class="cls-2" d="M58.97,16.75v27.7c0,2.7.1,5.55.2,7.17h-6.63l-.34-3.54h-.1c-1.52,2.7-4.42,4.08-7.52,4.08-5.7,0-10.27-4.86-10.27-12.33-.05-8.1,5.01-12.77,10.76-12.77,2.95,0,5.26,1.03,6.34,2.7h.1v-13.02h7.47ZM51.51,37.77c0-.39-.05-.93-.1-1.33-.44-2.01-2.06-3.68-4.37-3.68-3.39,0-5.16,3.05-5.16,6.83,0,4.08,2.01,6.63,5.11,6.63,2.16,0,3.88-1.47,4.32-3.59.15-.54.2-1.08.2-1.72v-3.14Z"/><path class="cls-2" d="M86.24,39.35c0,8.79-6.24,12.82-12.67,12.82-7.02,0-12.43-4.62-12.43-12.38s5.11-12.72,12.82-12.72,12.28,5.06,12.28,12.28ZM68.85,39.59c0,4.13,1.72,7.22,4.91,7.22,2.9,0,4.77-2.9,4.77-7.22,0-3.59-1.38-7.22-4.77-7.22-3.59,0-4.91,3.68-4.91,7.22Z"/><path class="cls-3" d="M88.41,35.52c0-3.54-.1-5.85-.19-7.91h6.43l.25,4.42h.2c1.23-3.49,4.17-4.96,6.48-4.96.69,0,1.03,0,1.57.1v7.02c-.54-.1-1.18-.2-2.01-.2-2.75,0-4.62,1.47-5.11,3.78-.1.49-.15,1.08-.15,1.67v12.18h-7.47v-16.11Z"/><path class="cls-3" d="M112.34,20.93c0,2.06-1.57,3.73-4.03,3.73s-3.93-1.67-3.88-3.73c-.05-2.16,1.52-3.78,3.93-3.78s3.93,1.62,3.98,3.78ZM104.62,51.63v-24.02h7.47v24.02h-7.47Z"/><path class="cls-3" d="M138.57,27.61c-.1,1.52-.2,3.54-.2,7.12v13.41c0,4.62-.93,8.4-3.63,10.8-2.65,2.26-6.24,2.95-9.78,2.95-3.14,0-6.48-.64-8.64-1.87l1.47-5.65c1.52.88,4.17,1.82,6.98,1.82,3.54,0,6.24-1.92,6.24-6.34v-1.57h-.1c-1.43,2.01-3.73,3.14-6.48,3.14-5.94,0-10.17-4.81-10.17-11.74,0-7.71,5.01-12.62,10.91-12.62,3.29,0,5.36,1.43,6.58,3.39h.1l.25-2.85h6.48ZM130.91,37.38c0-.49-.05-.98-.15-1.38-.54-1.97-1.97-3.29-4.03-3.29-2.7,0-4.91,2.46-4.91,6.83,0,3.59,1.77,6.39,4.91,6.39,1.92,0,3.44-1.28,3.93-3.05.2-.54.25-1.33.25-1.97v-3.54Z"/><path class="cls-3" d="M141.91,16.75h7.47v13.71h.1c.79-1.03,1.77-1.82,2.95-2.46,1.08-.59,2.51-.93,3.88-.93,4.77,0,8.4,3.29,8.4,10.51v14.05h-7.47v-13.21c0-3.14-1.08-5.31-3.88-5.31-1.97,0-3.19,1.28-3.73,2.6-.2.49-.25,1.13-.25,1.67v14.24h-7.47V16.75Z"/><path class="cls-3" d="M176.3,20.73v6.88h5.35v5.5h-5.35v8.7c0,2.9.69,4.22,2.95,4.22.93,0,1.67-.1,2.21-.2l.05,5.65c-.98.39-2.75.64-4.86.64-2.41,0-4.42-.83-5.6-2.06-1.38-1.42-2.06-3.73-2.06-7.12v-9.83h-3.19v-5.5h3.19v-5.21l7.32-1.67Z"/></svg>