<?xml version="1.0" encoding="UTF-8"?><svg xmlns="http://www.w3.org/2000/svg" xmlns:xlink="http://www.w3.org/1999/xlink" viewBox="0 0 4250.61 1724.34"><defs><style>.cls-1{fill:url(#radial-gradient);}.cls-1,.cls-2,.cls-3,.cls-4,.cls-5{mix-blend-mode:multiply;opacity:.4;}.cls-6{fill:#aecee7;opacity:.8;}.cls-7{fill:#231f20;}.cls-8{fill:#ffa950;}.cls-9{fill:#ffde17;}.cls-10{isolation:isolate;}.cls-11{fill:#fff;}.cls-12{fill:#f05a28;}.cls-13{fill:#e1c677;}.cls-13,.cls-14{opacity:.7;}.cls-14{fill:#c49a6c;}.cls-15{fill:#ec1c24;}.cls-2{fill:url(#radial-gradient-5);}.cls-3{fill:url(#radial-gradient-4);}.cls-4{fill:url(#radial-gradient-3);}.cls-5{fill:url(#radial-gradient-2);}</style><radialGradient id="radial-gradient" cx="1904.21" cy="2087.65" fx="1904.21" fy="2087.65" r="218.09" gradientTransform="translate(-1132.31 -2402.65) scale(1.98 1.72)" gradientUnits="userSpaceOnUse"><stop offset=".18" stop-color="#000"/><stop offset=".19" stop-color="#030303"/><stop offset=".31" stop-color="#454545"/><stop offset=".44" stop-color="#7d7d7d"/><stop offset=".56" stop-color="#acacac"/><stop offset=".68" stop-color="#d0d0d0"/><stop offset=".78" stop-color="#e9e9e9"/><stop offset=".88" stop-color="#f9f9f9"/><stop offset=".96" stop-color="#fff"/></radialGradient><radialGradient id="radial-gradient-2" cx="1735.68" cy="1959.34" fx="1735.68" fy="1959.34" r="218.1" gradientTransform="translate(793.24 -2965.99) rotate(16.15) scale(1.98 1.72)" xlink:href="#radial-gradient"/><radialGradient id="radial-gradient-3" cx="909.34" cy="2121.68" fx="909.34" fy="2121.68" r="218.09" xlink:href="#radial-gradient"/><radialGradient id="radial-gradient-4" cx="800.86" cy="2279.31" fx="800.86" fy="2279.31" r="218.1" gradientTransform="translate(793.24 -2965.99) rotate(16.15) scale(1.98 1.72)" xlink:href="#radial-gradient"/><radialGradient id="radial-gradient-5" cx="1573.64" cy="2143.93" fx="1573.64" fy="2143.93" r="218.09" xlink:href="#radial-gradient"/></defs><g class="cls-10"><g id="Layer_1"><polygon class="cls-1" points="2245.62 1288.29 2274.41 1210.14 2998.71 1208.47 3034.39 1289.87 2704.23 1243.12 2572.06 1243.89 2245.62 1288.29"/><rect class="cls-11" x="2272.57" y="517.58" width="726.59" height="715.41"/><rect class="cls-7" x="2304.89" y="547.29" width="664.38" height="654.25"/><rect class="cls-13" x="2526.03" y="506.57" width="222.1" height="62.39"/><polygon class="cls-5" points="2751.15 1213.43 2800.55 1146.37 3496.71 1346.28 3508.33 1434.4 3204.22 1297.63 3077.05 1261.61 2751.15 1213.43"/><rect class="cls-11" x="2883.19" y="562.01" width="715.41" height="726.59" transform="translate(1450.46 3780.81) rotate(-73.85)"/><rect class="cls-7" x="2915.17" y="592.62" width="654.25" height="664.38" transform="translate(1451.95 3781.79) rotate(-73.85)"/><rect class="cls-6" x="3304.76" y="490.4" width="62.39" height="222.1" transform="translate(1830.14 3638.36) rotate(-73.85)"/><path class="cls-15" d="M2949.24,572.27c1.19,22.54,2.22,42,2.74,48.78.11,1.45.21,2.97.31,4.57.53,8.34,1.12,17.8,4.4,25.49,4.03,9.45,11.38,14.16,21.89,14.06h.07c19.92-.73,23.64-17.26,26.89-52.19,3.31-35.58,8.53-126.86,8.58-127.78l-5.74-.33c-.05.92-5.26,92.1-8.56,127.57-3.51,37.66-7.5,46.46-21.34,46.98-16.95.18-19.23-14.71-20.46-34.17-.1-1.63-.2-3.16-.31-4.65-.52-6.71-1.54-26.14-2.73-48.64-1.65-31.16-3.69-69.93-5.04-86.72-1.3-16.11,2.33-29.68,10.2-38.22,6.27-6.8,14.96-10.24,25.82-10.24s20.24,3.48,26.6,10.36c9.18,9.93,11.54,25.27,10.67,36.32-.16,2.02-.35,4.28-.56,6.74.49-.13,1.02-.21,1.6-.21,1.77,0,3.12.66,4.04,1.67.25-2.85.46-5.46.64-7.75.96-12.26-1.74-29.38-12.18-40.67-7.49-8.1-17.86-12.2-30.82-12.2s-22.74,4.18-30.04,12.09c-8.98,9.73-13.13,24.85-11.71,42.58,1.34,16.71,3.39,55.44,5.03,86.56Z"/><path class="cls-15" d="M2935.23,517.19c1.78,0,3.13.67,4.05,1.68-.97-21.22-1.66-36.86-1.67-37.31l-5.74.25c.02.44.67,15.27,1.6,35.63.53-.16,1.12-.25,1.76-.25Z"/><polygon class="cls-4" points="272 1346.97 300.79 1268.82 1025.09 1267.15 1060.77 1348.55 730.61 1301.79 598.44 1302.57 272 1346.97"/><rect class="cls-11" x="298.95" y="576.26" width="726.59" height="715.41"/><rect class="cls-7" x="331.27" y="605.97" width="664.38" height="654.25"/><rect class="cls-13" x="552.41" y="565.25" width="222.1" height="62.39"/><polygon class="cls-3" points="816.46 1227.37 865.86 1160.31 1562.03 1360.22 1573.65 1448.34 1269.53 1311.57 1142.37 1275.55 816.46 1227.37"/><rect class="cls-11" x="948.5" y="575.95" width="715.41" height="726.59" transform="translate(40.64 1932.56) rotate(-73.85)"/><rect class="cls-7" x="980.48" y="606.56" width="654.25" height="664.38" transform="translate(42.13 1933.56) rotate(-73.85)"/><rect class="cls-6" x="1370.07" y="504.34" width="62.39" height="222.1" transform="translate(420.32 1790.12) rotate(-73.85)"/><polygon class="cls-2" points="1589.84 1385.34 1618.64 1307.18 2342.94 1305.51 2378.61 1386.92 2048.45 1340.16 1916.28 1340.94 1589.84 1385.34"/><rect class="cls-11" x="1616.79" y="614.63" width="726.58" height="715.41"/><rect class="cls-7" x="1649.11" y="644.34" width="664.38" height="654.25"/><rect class="cls-14" x="1870.25" y="603.62" width="222.1" height="62.39"/><path class="cls-12" d="M1001.48,639.61c11.71,19.29,21.82,35.95,25.49,41.67.78,1.23,1.59,2.52,2.43,3.88,4.41,7.1,9.41,15.15,15.94,20.37,8.02,6.42,16.74,7.1,25.94,2.03l.06-.04c17.21-10.06,12.66-26.39-1-58.7-13.92-32.91-52.51-115.8-52.9-116.63l-5.21,2.43c.39.83,38.94,83.63,52.81,116.45,14.73,34.84,15.38,44.48,3.43,51.48-.08.04-.17.09-.25.13-14.7,7.89-23.71-4.09-33.94-20.56-.86-1.38-1.67-2.69-2.48-3.95-3.63-5.67-13.73-22.3-25.42-41.56-16.19-26.67-36.34-59.87-45.47-74.02-8.76-13.58-11.99-27.25-9.09-38.5,2.31-8.95,8.33-16.1,17.9-21.24,9.95-5.34,19.48-6.51,28.34-3.46,12.79,4.4,22.12,16.81,26.58,26.95,3.32,7.54,8.07,18.75,13.41,31.48.36-2.7,1.43-5.25,3.12-7.42-4.46-10.6-8.39-19.85-11.27-26.38-4.96-11.25-15.43-25.06-29.97-30.07-10.43-3.59-21.51-2.3-32.93,3.83-10.88,5.85-18.06,14.44-20.75,24.87-3.3,12.82.19,28.1,9.83,43.05,9.09,14.08,29.22,47.24,45.39,73.88Z"/><path class="cls-12" d="M954.78,576.06c-3.93-6.59-6.35-10.66-6.47-10.87l-4.94,2.94c.1.18,1.83,3.09,4.72,7.93h6.69Z"/><path class="cls-9" d="M1626.3,615.27c1,.02,1.85.25,2.57.62l11.94-46.58-5.55-1.42-12.05,46.99c.26-.03.53-.05.81-.05.86,0,1.62.16,2.28.44Z"/><path class="cls-9" d="M1689.47,530.99c-14.81-3.8-29.95,5.2-33.76,20.07l-6.23,24.6-41.27,160.91c-2.72,10.62,3.16,21.33,13.12,23.88,9.96,2.55,20.27-4.01,22.99-14.62l41.75-162.79-5.55-1.42-41.75,162.79c-1.94,7.55-9.12,12.26-16.01,10.49-6.89-1.77-10.92-9.35-8.99-16.9l41.27-160.92,6.23-24.6c3.03-11.79,15.04-18.94,26.78-15.93,11.74,3.01,18.84,15.06,15.82,26.83l-5.16,19.62-8.11,31.63c.5-.14,1.04-.22,1.63-.22.72,0,1.36.11,1.93.31.58-.2,1.23-.31,1.95-.31.16,0,.31.01.46.02l7.69-29.99,5.16-19.62c3.81-14.86-5.13-30.03-19.94-33.83Z"/><path class="cls-8" d="M3466.68,801.19c14.73,28.94,23.58,42.35,50.06,61.6,59.57,43.3,117.54,40.62,182.31,10.1,66.41-31.3,101.26-135.09,87.92-204.05-14.19-73.35-99.67-118.65-169.98-112.37-47.36,4.23-116.79,39.53-140.37,81.84-24.09,43.24-32.79,118.02-9.95,162.88ZM3494.51,710.36c2.71-33.11,17.25-63.29,43.84-83.29,16.56-12.45,64.84-32.78,85.25-35.25,15.63-1.89,18.34,2.1,30.9,4.96,10.73,2.44,19.82,2.41,30.54,7.05,20.74,8.98,32.02,17.04,45.38,35.32,29.86,40.85,27.14,76.23,12.5,122.85-13.62,43.35-35.48,68.73-77.09,86.52-54.46,23.29-128.94,3.1-158.3-49.49-13.81-24.74-15.32-60.63-13.02-88.66Z"/><path class="cls-8" d="M3358.25,477.39c-11.96-7.31-27.55,1.51-22.65,15.98.92,2.73,8.14,13.78,10.19,16.36,7.91,9.96,23.07,21.52,32.67,31.45,18.82,19.47,35.34,41.41,56.47,58.51,11.51,9.32,31.56,25.93,45.76,12.82,6.9-6.37,4.99-11.4,3.15-19.72-2.47-11.19-6.4-17.44-14.17-25.63-27.26-28.73-74.36-67.38-108.59-86.56-.45-.25-1.16-2.2-2.81-3.21ZM3408.78,541.81c2.06,1.69,5.92,3.81,6.12,6.58-6.94-1.77-12.19-7.99-16.58-13.25,3.67,1.03,7.53,4.27,10.46,6.67Z"/><path class="cls-8" d="M3796.32,894.95c-7.91-7.19-26.94-23.78-35.44-28.68-4.79-2.76-11.44-3.46-16.83-2.54-7.18,1.22-13.78,8.36-13.86,15.75-.06,6.01,5.67,15.46,8.84,20.8,17.18,28.93,37.77,63.08,65.1,83.03,10.1,7.37,25.66,18.56,38.05,10.61,7.26-4.66,6.09-11.36,4.47-18.86-5.72-26.52-30.37-61.96-50.35-80.1ZM3807.35,949.69c-2.08.48-2.62-1.17-3.87-2.2-9.29-7.68-19.78-19.49-23.76-30.95,2.02-1.91,8.63,5.8,9.91,7.21,3.98,4.38,9.72,11.83,13.11,16.74,1.02,1.48,5.84,7.9,4.6,9.21Z"/><path class="cls-8" d="M3405.39,993.79c14.1-1.41,34.98-24.66,44.36-35.24,10.71-12.07,46.66-52.5,51.59-64.49,6.09-14.81,3.45-38.3-17.06-34.77-3.43.59-12.98,8.96-15.79,11.86-21.82,22.53-40.79,47.57-61.85,70.81-9.86,10.89-34.42,26.72-25.85,43.51,3.5,6.86,17.67,9.01,24.61,8.31Z"/><path class="cls-8" d="M3953.34,725.89c1.04-10.46-.54-15.02-9.47-20.49-6.89-4.22-10.33-2.92-16.3-4.7-28.33-8.46-41.51-14.67-72.9-12.68-14.77.93-47.78,3.75-52.08,20.88-7.94,31.69,38.43,25.36,56.22,26.28,20.31,1.05,40.91,5.96,60.7,6.73,13.06.51,32.13,1.06,33.82-16.03Z"/><path class="cls-8" d="M3274.5,782.22c3.94,4.44,15.62,5.72,21.53,6.11,41.22,2.75,57.81-8.33,93.98-21.09,15.14-5.34,54.32-9.58,45.62-34.49-3.78-10.83-16.78-12.38-26.53-10.54-8.46,1.6-18.76,7.55-27.35,10.24-29.54,9.27-59.66,13.1-89.97,17.26-15.07,2.07-29.57,18.66-17.27,32.5Z"/><path class="cls-8" d="M3604.75,393.88c-4.23.87-6.95,4.05-9.02,7.55-7.85,13.28-5.21,42.85-6.1,59.12-.89,16.11-6.06,50.93-1.89,64.82,6.61,22.03,28.42,26.79,37.78,4.24,12.89-31.04,6.09-73.41,2.75-106.68-1.48-14.68-3.22-33.24-23.51-29.05Z"/><path class="cls-8" d="M3628.46,1035.56c8.71-20.56,20.24-90.9,18.64-113-.8-10.99-5.16-20.54-17.98-19.03-9.73,1.14-17.76,11.22-20.99,19.95-8.17,22.09-18.64,92.29-16.34,115.19,2.72,27.04,28.78,15.51,36.66-3.11ZM3618.06,955.51c.53-1.17.95-2.79,2.46-1.39.54.5,1.12,4.68,1.05,5.91-.32,5.78-5.82,36.4-7.92,40.83-.57,1.2-1.7,2.7-3.06,3.01,2.54-13.95,1.73-35.66,7.47-48.35Z"/><path class="cls-8" d="M3742.2,575.42c1.11,6.78,10.96,12.78,17.62,11.19,5.36-1.28,33.73-23.77,38.74-28.77,5.88-5.86,11.33-14.27,17.07-20.52,10.84-11.81,24.32-24.33,34.3-36.45,8.25-10.03,15.76-24.97,4.59-36.12-5.66-5.64-19.33-7.14-26.51-3.49-14.45,7.35-13.14,16.93-17.94,29.6-3.01,7.96-30,36.26-37.51,43.19-11.69,10.8-33.48,22.27-30.36,41.37Z"/></g></g></svg>