<?xml version="1.0" encoding="UTF-8"?><svg id="Layer_1" xmlns="http://www.w3.org/2000/svg" viewBox="0 0 2388.84 2239.53"><defs><style>.cls-1{fill:#414042;}.cls-2{fill:#efaf75;}.cls-3{fill:#d8a38d;}.cls-4{fill:#bf905a;}.cls-5{fill:#fff;}.cls-6{fill:#af6827;}.cls-7{fill:#e5b9a3;}.cls-8{opacity:.02;}.cls-9{fill:#8a8761;}.cls-10{fill:#c18140;}</style></defs><rect class="cls-8" x="191.73" y="248.43" width="1228.76" height="1228.76"/><rect class="cls-8" x="194.11" y="250.33" width="1228.76" height="1228.76"/><rect class="cls-8" x="196.48" y="252.23" width="1228.76" height="1228.76"/><rect class="cls-8" x="198.85" y="254.13" width="1228.76" height="1228.76"/><rect class="cls-8" x="201.23" y="256.03" width="1228.76" height="1228.76"/><rect class="cls-8" x="203.6" y="257.94" width="1228.76" height="1228.76"/><rect class="cls-8" x="205.98" y="259.84" width="1228.76" height="1228.76"/><rect class="cls-8" x="208.35" y="261.74" width="1228.76" height="1228.76"/><rect class="cls-8" x="210.73" y="263.64" width="1228.76" height="1228.76"/><rect class="cls-8" x="213.1" y="265.54" width="1228.76" height="1228.76"/><rect class="cls-8" x="215.48" y="267.44" width="1228.76" height="1228.76"/><rect class="cls-5" x="191.73" y="248.43" width="1228.76" height="1228.76"/><rect class="cls-1" x="212.35" y="269.05" width="1187.53" height="1187.52"/><rect class="cls-8" x="1183.81" y="1297.45" width="982.82" height="595.77"/><rect class="cls-8" x="1186.86" y="1299.89" width="982.82" height="595.77"/><rect class="cls-8" x="1189.91" y="1302.33" width="982.82" height="595.77"/><rect class="cls-8" x="1192.95" y="1304.77" width="982.82" height="595.77"/><rect class="cls-8" x="1196" y="1307.2" width="982.82" height="595.77"/><rect class="cls-8" x="1199.05" y="1309.64" width="982.82" height="595.77"/><rect class="cls-8" x="1202.1" y="1312.08" width="982.82" height="595.77"/><rect class="cls-8" x="1205.14" y="1314.52" width="982.82" height="595.77"/><rect class="cls-8" x="1208.19" y="1316.96" width="982.82" height="595.77"/><rect class="cls-8" x="1211.24" y="1319.4" width="982.82" height="595.77"/><rect class="cls-8" x="1214.28" y="1321.83" width="982.82" height="595.77"/><rect class="cls-5" x="1183.81" y="1297.45" width="982.82" height="595.77"/><rect class="cls-1" x="1208.85" y="1321.81" width="932.15" height="549.62"/><rect class="cls-8" x="1291.27" y="551.38" width="618.71" height="812.27"/><rect class="cls-8" x="1294.31" y="553.82" width="618.71" height="812.27"/><rect class="cls-8" x="1297.36" y="556.25" width="618.71" height="812.27"/><rect class="cls-8" x="1300.41" y="558.69" width="618.71" height="812.27"/><rect class="cls-8" x="1303.46" y="561.13" width="618.71" height="812.27"/><rect class="cls-8" x="1306.5" y="563.57" width="618.71" height="812.27"/><rect class="cls-8" x="1309.55" y="566.01" width="618.71" height="812.27"/><rect class="cls-8" x="1312.6" y="568.45" width="618.71" height="812.27"/><rect class="cls-8" x="1315.64" y="570.88" width="618.71" height="812.27"/><rect class="cls-8" x="1318.69" y="573.32" width="618.71" height="812.27"/><rect class="cls-8" x="1321.74" y="575.76" width="618.71" height="812.27"/><rect class="cls-5" x="1291.27" y="551.38" width="618.71" height="812.27"/><rect class="cls-1" x="1315.72" y="575.9" width="567.2" height="764.23"/><rect class="cls-8" x="525.34" y="1233.7" width="733.01" height="733.01"/><rect class="cls-8" x="528.39" y="1236.14" width="733.01" height="733.01"/><rect class="cls-8" x="531.44" y="1238.58" width="733.01" height="733.01"/><rect class="cls-8" x="534.49" y="1241.02" width="733.01" height="733.01"/><rect class="cls-8" x="537.53" y="1243.46" width="733.01" height="733.01"/><rect class="cls-8" x="540.58" y="1245.9" width="733.01" height="733.01"/><rect class="cls-8" x="543.63" y="1248.34" width="733.01" height="733.01"/><rect class="cls-8" x="546.67" y="1250.77" width="733.01" height="733.01"/><rect class="cls-8" x="549.72" y="1253.21" width="733.01" height="733.01"/><rect class="cls-8" x="552.77" y="1255.65" width="733.01" height="733.01"/><rect class="cls-8" x="555.82" y="1258.09" width="733.01" height="733.01"/><rect class="cls-5" x="525.34" y="1233.7" width="733.01" height="733.01"/><rect class="cls-1" x="548.35" y="1256.71" width="687.01" height="687.01"/><path class="cls-9" d="M329.94,1257.22c-3.31-6.16-13.51-2.07-10.17,4.16,33.54,62.4,40.3,133.86,46.69,203.23,6.53,70.94,3.75,140.61-1.88,211.5-.56,7.03,10.32,8.59,10.88,1.54,5.71-71.85,8.54-142.45,1.92-214.35-6.47-70.26-13.46-142.87-47.43-206.08Z"/><path class="cls-9" d="M363.54,1436.99c-.15-.43-.35-.86-.61-1.27-19.53-29.94-43.17-58.86-79.92-66.43-3.47-.72-6.68,2.75-6.22,6.09,5.56,40.94,37.76,72.15,79.02,75.63,1.12.09,2.09-.12,2.91-.52.26.07.52.16.78.23,2.88.72,5.82-1.95,6.21-4.67.19-1.31-.1-2.45-.67-3.41.7-1.99.37-4.27-1.5-5.65Z"/><path class="cls-9" d="M374.29,1471.85c-.08-.31-.13-.63-.14-.97-.36-24.79,2.07-50.59,20.51-69.27,1.74-1.77,4.97-1.03,6.01,1.06,12.81,25.63,6.29,56.1-16.38,74.19-.62.49-1.26.74-1.9.84-.13.14-.24.29-.37.44-1.39,1.54-4.16,1.15-5.45-.25-.62-.68-.91-1.44-.95-2.21-1.19-.87-1.89-2.3-1.34-3.82Z"/><path class="cls-9" d="M374.69,1578.75c.06-.45.09-.92.04-1.41-3.4-35.59-10.92-72.17-39.95-95.94-2.74-2.25-7.19-.67-8.34,2.51-14.08,38.84-.05,81.44,34.89,103.67.95.6,1.91.86,2.82.89.2.19.38.38.59.57,2.21,1.98,6.06.97,7.67-1.25.77-1.07,1.05-2.21.99-3.33,1.55-1.44,2.31-3.61,1.3-5.7Z"/><path class="cls-3" d="M262.88,1033.46c-3.58-9.47-11.82-35.59-26.69-30.11-13.8,5.08-1.78,30.38,1.55,38.99,5.89,15.21,13.86,29.49,22.18,43.51,1.78,3.32,3.52,6.66,5.19,10.02.92,1.84,2.54,2.63,4.17,2.67.9.12,1.86-.02,2.73-.37,2.88.64,6.38-1.2,5.86-4.99-2.83-20.39-7.73-40.45-15-59.72Z"/><path class="cls-3" d="M318.52,994.18c-13.95-12.23-30.84,1.22-34.09,16.22-2.48,11.44-1,24.07-.86,35.69.18,14.7.16,29.41,1.62,44.06.17,1.68,1.02,2.79,2.14,3.41.03.43.06.86.09,1.29.23,2.7,2.77,4.21,5.25,4.13,20.95-.71,27.42-28.97,31.83-44.95,4.81-17.41,9.8-46.01-5.98-59.85Z"/><path class="cls-3" d="M233.66,1164.45c-1.06-4.85-4.25-8.15-8.39-10.44.13-.65.12-1.31-.04-1.93,4.29-.13,6.48-6.93,1.67-9.1-39.84-17.92-81.51-32.93-125.52-35.16-6.02-.3-7.47,9.03-1.41,9.34,38.83,1.97,75.62,14,111.07,29.18-10.98-2.51-22.13-3.79-33.51-3.96-14.89-.22-31.76-.17-45.71,5.75-7.73,3.29-20.31,11.77-15.79,21.88,1.87,4.18,5.85,5.8,10.01,6.89,4.64,1.21,9.49,1.96,14.35,2.62-2.85,3.7-4,8.45-1.99,13.79,4.74,12.64,21.99,8.94,32.32,8.26,15.74-1.03,31.82-3.57,45.73-11.44,9.08-5.14,19.81-13.84,17.22-25.69Z"/><path class="cls-3" d="M408.46,1030.45c1.39-4.67,2.77-9.35,4.08-14.04,1.9-6.82,3.87-14.85.56-21.57-7.48-15.14-22.65-.16-29.75,7.14-12.42,12.77-21.06,28.69-29.29,44.33-9.11,17.32-18.02,34.73-21.16,54.24-.25,1.55.19,2.78.99,3.67-1.97,11.23.21,20.84,14.12,21.51,24.07,1.15,48.16-18.29,63.15-35.04,9.55-10.67,17.54-22.6,25.23-34.65,5.69-8.92,12.9-18.97,11.79-30.13-1.85-18.61-24.77-6.21-39.72,4.54Z"/><path class="cls-3" d="M277.51,1182.45c-11.04-3-18.49,2.96-22.92,11.33-2.12.73-4.02,2.28-5.24,4.87-7.37,15.57-14.52,31.83-14.32,49.38.08,6.98,1.33,14.39,9.08,16.31,2.11.52,4.21.5,6.23.1,1.17,3.07,2.88,5.88,5.88,8.2,5.83,4.5,13.34,4.51,19.31.25,13.64-9.72,17.87-31.16,18.34-46.6.45-14.62,1.69-38.93-16.36-43.84Z"/><path class="cls-3" d="M363.11,1128.59c-.73,7.03,5.81,8.06,13.93,6.44,1.01.74,2.7.99,5.19.41,14.97-3.48,30.51-7.39,45.92-15.65,6.13-3.29,12.43-7.37,12.77-12.22.09-1.32-.28-2.38-.99-3.23,2.5-2.03,4.68-4.2,6.19-6.81,2.95-5.06,1.65-8.9-3.13-9.97-10.91-2.44-30.5,5.37-44.16,12.3-12.93,6.56-34.54,17.24-35.73,28.73Z"/><path class="cls-3" d="M451.12,1167.9c-10.63-6.37-22.4-10.23-34.48-12.83-22.57-4.87-50.67-9.62-73.3-3.33-10.69,2.97-20.66,9.64-24.79,20.33-2.07,5.34-2.28,11.15-.71,16.37-4.17,3.62-5.53,10.04.42,13.7,11.14,6.84,22.22,13.76,32.06,22.43,8.35,7.35,16.49,15.13,27.79,17.45,15.5,3.18,30.28-7.74,30.76-21.53,11.78-2.11,23.65-4.13,35.18-7.15,10.79-2.83,23.19-8.77,25.17-21.03,1.9-11.73-9.36-19.16-18.1-24.39Z"/><path class="cls-2" d="M327.31,1084.61c-2.34-1.02-5.21.1-6.21,2.45-1.13,2.65-2.14,5.34-3.03,8.09-.79,2.42-.04,5.13,2.45,6.21,2.17.94,5.42-.01,6.21-2.45.89-2.74,1.9-5.43,3.03-8.09,1-2.34-.1-5.19-2.45-6.21Z"/><path class="cls-7" d="M252.55,1109.72c-1.52-15-4.4-29.76-8.84-44.19-3.32-10.8-7.52-22.15-18.85-26.54-3.71-1.44-7.95,2.2-6.25,6.12,4.58,10.54,8.84,21.21,12.71,32.04-5.25-11.37-10.96-22.53-17.16-33.44-5.85-10.28-22.9-42.77-39.74-32.31-17.43,10.83,8.85,43.81,15.72,53.89,8.9,13.05,18.74,25.39,29.34,37.05.36.63.84,1.13,1.4,1.51,5.47,5.95,11.12,11.74,16.97,17.34,1.2,1.15,2.5,1.41,3.67,1.12,2.4.55,5.11-1.27,5.73-3.8,2.76.39,5.99-1.45,5.68-5.07-.02-.24-.05-.48-.07-.72.25-.88.2-1.89-.29-2.99Z"/><path class="cls-7" d="M232.25,1128.94c.34-1.2.18-2.56-.8-3.87-18.98-25.46-41.07-48.98-69.1-64.51-14.11-7.82-29.59-13.35-45.6-15.6-1.75-.25-3.71-.54-5.78-.81-5.06-1.13-10.23-1.65-14.91-.72-6.49.52-12.41,2.6-15.57,8.08-5.53,9.57-.72,20.66,7.16,27.09,12.64,10.32,30.41,16.14,44.97,23.25,17.36,8.47,34.71,16.95,52.07,25.42,14.51,7.09,28.68,14.52,45.26,13.77,2-.09,3.87-2.04,4.11-3.98.41-3.39-.35-5.9-1.8-8.12Z"/><path class="cls-7" d="M238.67,1158.89c-.9-.56-1.83-1.04-2.74-1.55.29-1.89-.39-3.93-2.55-5.03-24.65-12.51-51.79-19.33-79.46-19.6-20.63-.2-53.6.89-65.35,21.62-4.08,7.2-2.81,16.71,6.63,18.5,5.69,1.08,10.88-2.12,15.85-4.27,8.18-3.53,16.67-6.23,25.43-7.89,17.2-3.26,34.98-2.47,52.68-.34,1.65.61,34.04,5.22,45.89,6.94,4.33.63,7.83-5.8,3.62-8.38Z"/><path class="cls-7" d="M374.06,1005.29c-14.29-16.68-29.18,13.87-33.43,23.96-6.68,15.85-15.37,33.82-18.43,51.75-1.14,2.75-2.28,5.5-3.39,8.26-2.38,5.95-5.41,11.41-2.59,17.6,1.32,2.89,4.62,3.71,7.22,1.98,17.72-11.81,28.85-29.91,37.5-48.96,4.47-9.85,8.39-19.97,12.39-30.02,3.08-7.75,6.99-17.26.73-24.56Z"/><path class="cls-7" d="M270.75,968.76c-20.14,4.09-18.51,36.69-15.83,51.3,4.66,25.41,13.75,50.44,23.51,74.27,1.61,3.92,6.34,3.37,8.28.76,1.07-.6,1.96-1.69,2.35-3.31,6.08-24.88,7.98-50.63,5.23-76.12-1.29-11.99-3.12-51.06-23.54-46.91Z"/><path class="cls-7" d="M504.36,1122.96c-5-19.96-44.17-16.42-61.71-12.88-30.51,6.17-60.55,16.75-89.14,27.94-4.7,1.84-4.02,6.56-.88,8.35.73,1.04,2.04,1.86,3.99,2.17,29.92,4.64,60.87,5.04,91.48.79,14.4-2,61.34-6.12,56.26-26.37Z"/><path class="cls-7" d="M323.02,1035.96c-10.1-4.85-15.62,11.3-18.37,17.97-3.76,9.1-9.48,22.51-6.66,32.79-.2,2.44-.31,4.9-.3,7.4,0,.58.12,1.08.28,1.53-.14.27-.26.55-.39.82-2.43,4.77,4.92,9.14,8.04,4.8,7.9-10.99,15.31-22.07,18.95-35.26,1.96-7.12,7.33-25.79-1.55-30.05Z"/><path class="cls-7" d="M249.96,1176.3c.5-2.84-1.33-6.14-5.02-5.61-27.51,3.99-54.97,10.04-81.26,19.14-13.43,4.64-47.78,17.35-40.48,37.56,2.96,8.18,11.18,9.22,18.66,7.64,12.2-2.58,24.44-8.3,35.79-13.32,24.83-10.98,48.36-24.61,71.64-38.51,2.39-1.43,2.29-4.89.66-6.9ZM215.61,1191.27c1.24-.49,2.5-.97,3.78-1.45-1.13.64-2.26,1.28-3.4,1.91-.12-.16-.24-.32-.38-.46Z"/><path class="cls-7" d="M336.09,1226.5c-6.88-14.54-19.47-37.13-36.97-39.91-3.29-.52-5.44,2.24-5.39,5.23.01.67.08,1.33.14,1.98-.5.36-.93.8-1.28,1.3-.5-1.84-1.09-3.67-1.82-5.47-2.29-5.62-11.04-2.07-8.74,3.57.31.75.61,1.92.91,3.41.01.36.09.73.21,1.12,3.33,18.29,6.84,75.52,20.63,71.39,2.47-.74,3.84-2.96,4.51-5.9.27,1.25.55,2.49.87,3.73,1.71,6.6,4.06,15.29,11.26,17.87,6.63,2.37,13.11-1.44,16.76-6.88,9.88-14.77,6.01-36.46-1.08-51.43Z"/><path class="cls-7" d="M439.03,1199.74c-8.88-6.72-19-11.75-29.39-15.65-24.8-9.29-51.2-14.87-77.35-8.46-3.52.86-5.43,5.31-3.07,7.84-1.8,2.63-1.11,6.94,2.94,7.34,28.2,2.78,54.91,11.86,78.89,26.97,8.22,5.18,43.68,28.94,45.04,5.24.56-9.73-10.17-18.05-17.06-23.27ZM436.59,1209.88c1.3,1.1,5.95,5.38,7.9,8.78-4.22-4.95-8.95-9.39-14.01-13.47,2.11,1.47,4.15,3.03,6.11,4.69Z"/><path class="cls-7" d="M452.63,1043.63c-19.77,4.38-34.33,22.48-47.73,36.46-17.57,18.32-36.5,35.19-55.54,51.95-.69.61-1.12,1.3-1.37,2.02-1.87.64-3.76,1.23-5.7,1.68-5.85,1.37-4.79,10.76,1.12,9.37,23.18-5.42,40.65-22.08,57.76-37.67,19.52-17.78,38.08-36.58,55.74-56.22,2.61-2.9-.3-8.48-4.27-7.6Z"/><path class="cls-7" d="M263.16,1185.59c-1.13-2.65-4.42-4.34-7.08-2.07-.28.24-.56.47-.84.71-17.93,11.98-34.94,25.24-50.74,39.92-5,4.64-32.02,26.99-15.74,33.25,6.08,2.34,15.25-1.75,20.49-4.52,7.82-4.14,14.38-10.18,20.58-16.41,13.48-13.54,25.71-28.4,32.98-46.21,1.21-1.42,1.16-3.21.36-4.68Z"/><path class="cls-7" d="M436.41,1170.38c-9.29-11.26-26.69-12.91-40.31-13.18-15.61-.31-34.16-1.69-49.22,2.68-1.84.53-2.73,1.77-2.92,3.16-2.65,2.89-1.01,8.79,3.81,7.94,14.25-2.51,28.46-3.65,42.91-2.1,6.53.7,13.03,1.83,19.41,3.42,7.21,1.8,14.37,5.41,21.85,5.59,3.76.09,7.36-4.01,4.47-7.52Z"/><path class="cls-4" d="M359.59,1134.17c-1.1-3.07-2.6-5.34-4.61-7.24-.38-4.08-2.88-8.31-6.26-10.95-.53-1.78-1.58-3.41-3.15-4.83-1.56-1.41-3.87-1.99-5.48-3.33-1.74-1.44-2.97-3.55-4.66-5.06-4.18-3.73-9.31-6.96-14.74-7.73-.1-.22-.2-.44-.3-.66-1.56-3.41-5.07-4.93-8.39-4.05-1.13-.92-2.49-1.61-4.17-1.89-1.11-.19-2.04-.2-2.85-.09-1.99-3.65-6.77-5.4-10.48-2.49-.33.26-.63.52-.94.78-2.38-1.18-5.41-1.3-7.4.6-.48.46-.96.91-1.43,1.37-.77-.57-1.62-1.03-2.55-1.31-.68-.21-1.36-.3-2.04-.34-2.31-1.84-5.42-2.4-8.11.03-1.27,1.14-2.46,2.32-3.58,3.55-1.65.16-3.31.79-4.86,1.99-1.34,1.03-2.44,2.42-3.42,3.94-.63-.46-1.32-.8-2.08-.95-.89-.34-1.82-.43-2.78-.28-.61.16-1.23.32-1.84.48-1.15.48-2.11,1.2-2.89,2.18-.31.52-.62,1.04-.93,1.55-.5,1.17-.68,2.39-.53,3.66l.02.18s-.09-.03-.14-.03c-.63,0-1.27-.02-1.9-.03-1.27.16-2.41.62-3.43,1.38-.43.42-.86.85-1.29,1.27-.57.73-.93,1.56-1.18,2.43-.05.09-.1.17-.15.26-.44,1.02-.62,2.08-.56,3.17-.5-.06-1.01-.06-1.52.02-1.72.21-3.69,1.22-4.72,2.65-1.07,1.49-1.77,3.36-1.46,5.22.16.61.32,1.23.48,1.84.25.6.57,1.14.96,1.64l-1.94.23c-1.8.22-3.6,1.23-4.72,2.65-.61.72-1,1.53-1.18,2.44-.34.89-.43,1.82-.28,2.78.3,1.81,1.12,3.62,2.65,4.72.37.27.76.5,1.16.71-.1.17-.21.33-.29.5-.06.1-.12.21-.18.31-.19.45-.32.91-.41,1.38-3.44,1.96-6.16,5.01-8.08,8.98-1.28,2.65-.38,6.69,2.12,8.39.82.46,1.57,1.01,2.29,1.59-.76,2.44-.4,4.91,1,6.8-.99,4.71,2.69,8.91,7.69,8.61,1.93-.12,3.85-.23,5.78-.35,7.35-.44,7.64-9.67,2.71-12.94-.38-1.18-1.07-2.27-2.13-3.15.24-1.81-.05-3.69-1.31-5.12-.38-.43-.75-.82-1.13-1.23.33-.01.67,0,1.03.04,2.61-.17,4.94-2.27,5.89-4.78,3.79.08,7.39-2.48,6.6-7.53-.12-.78-.25-1.58-.38-2.37.71.18,1.4.4,2.12.55,3.69.9,6.12-1.01,7.15-3.7,4,1.63,9.86-.6,9.97-5.38.02-.7,0-1.46-.03-2.25,3.85.9,8.14-.69,8.55-4.78,1.87-.15,3.64-.93,4.84-2.24,2.5.49,5.08-.24,6.6-2.68,2.1.17,4.37-.58,5.92-2.01,1.65,2.83,5.81,4.58,8.78,2.98,1.78-.95,3.15-1.8,4.47-3.2,1.02,2.42,2.23,4.96,2.42,5.27,1.74,2.79,4.87,3.31,7.59,2.39,1.4,1.77,3.79,2.77,6.08,2.68.11,4.22,3.13,7.26,6.58,7.55,1.7,3.04,5.88,3.97,9.14,2.63.53.81,1.2,1.54,2,2.13-.05.08-.1.15-.15.23-4.7,7.7,6.39,16.53,11.13,8.75.49-.42.97-.83,1.46-1.25,3.75-1.22,5.08-5.85,3.87-9.24Z"/><path class="cls-10" d="M355.81,1143.84c-1.87-1.64-3.93-2.96-6.15-4.02-.16-.86-.46-1.68-.89-2.43-.14-.71-.25-1.42-.43-2.12-.64-2.51-1.69-4.56-4.21-5.65-2.45-1.07-4.93-.55-7.1.85-1.62,1.05-2.88,2.85-3.49,4.74-.08-.09-.16-.17-.24-.26.38-.47.73-.96,1.01-1.53.5-1.01.75-2.06.83-3.13.32-1.36.64-2.71.96-4.07.85-3.61-2.36-7.68-5.95-8.06-1-.11-1.94-.03-2.81.2-.03-.02-.06-.04-.09-.06-1.06-.74-2.31-1.19-3.58-1.35-.71-1.39-1.82-2.55-3.34-3.05-2.21-.73-4.39-1.21-6.49-1.25-1.29-1.45-2.98-2.52-5.21-2.86-1.35-.21-2.78-.08-4.13.33-2.4-.22-4.95.77-6.43,2.64-.45.57-.76,1.19-1,1.81-.15-.28-.3-.56-.48-.8-1.03-1.36-2.87-2.55-4.59-2.73-1.85-.19-3.86.14-5.33,1.36-.73.6-1.34,1.3-1.81,2.08-1.1-.08-2.17.07-3.21.49-.53.3-1.06.61-1.59.91-.98.75-1.72,1.69-2.22,2.82l-.24.48c-.49.54-.91,1.13-1.17,1.81-.07.18-.16.34-.24.51,0,.01-.02.02-.03.04-1.65-.55-3.5-.69-5.11.06-.6.28-1.18.65-1.73,1.07-2.48-.43-5.12.32-6.73,2.5-.03.03-.04.05-.06.08-.09,0-.18.01-.32.03-1.67.1-3.04.88-4.07,1.99-.19.02-.38.02-.58.05-3.14.53-6.32,3.35-6.29,6.74-1.25.16-2.52.59-3.42,1.34-1.07.89-1.92,2.18-2.4,3.59l-1.06.13c-1.8.22-3.6,1.23-4.72,2.65-.61.72-1,1.53-1.18,2.44-.34.89-.43,1.82-.28,2.78.06.36.15.71.25,1.06-.8.42-1.52.99-2.12,1.77-1.07,1.37-1.75,3.48-1.46,5.22.3,1.81,1.12,3.62,2.65,4.72.1.07.21.14.32.21,0,.02.01.04.02.06-.56,1.62-.55,3.37.29,4.9-.51.79-.88,1.7-1.03,2.69-.34,2.29.55,4.63,2.18,6.2.27,2.35,1.74,4.68,3.7,5.67.35.45.71.86,1.11,1.28.19.2.39.37.59.55.42,1.16,1.11,2.26,2.15,3.22,3.6,3.32,7.47,2.32,11.26.29-.77,2.48-.44,5.36,1.83,7.64,4.02,4.04,8.23,3.11,13.33,3.8,2.39.32,4.43,1.47,6.94,1.22,2.56-.26,4.83-2.64,6.59.14,2.3,3.66,7.1,3.43,10.1,1.05,2.43.37,5.03-.63,6.62-2.48.35-.22.68-.46.99-.74,2.98-.2,5.6-2.23,6.77-4.69.74.79,1.54,1.53,2.47,2.16,2.7,1.84,6.59,1.91,9.05-.16.87-.2,1.75-.5,2.61-.99,2.3-1.32,3.8-3.57,4.33-6.05,1.98.13,4.06-.92,5.39-2.33,4.2.21,7.06-3,7.37-6.97.38.05.76.09,1.14.14,1.7.2,3.36-.29,4.74-1.2,4.6-.37,7.13-5.38,5.72-9.61.36-.97.54-2.05.43-3.23-.05-.53-.1-1.07-.15-1.6.36-.38.71-.78,1.03-1.24.9-1.32,1.55-2.89,1.75-4.48l.02-1.39c2.12-2.89,1.41-7.56-1.35-9.98Z"/><path class="cls-2" d="M225.26,1145.94c-6.03.72-4.92,10.1,1.12,9.37,6.03-.72,4.92-10.1-1.12-9.37Z"/><path class="cls-2" d="M237.82,1121.47c-.24-.51-.48-1.02-.72-1.53-.53-1.11-1.34-2.04-2.49-2.54-.58-.28-1.18-.39-1.81-.35-.64-.06-1.26.04-1.86.31-1.09.5-2.1,1.34-2.54,2.49-.44,1.15-.58,2.52-.04,3.67.24.51.48,1.02.72,1.53.53,1.11,1.34,2.04,2.49,2.54.58.28,1.18.39,1.81.35.64.06,1.26-.04,1.86-.31,1.09-.5,2.1-1.34,2.54-2.49.44-1.15.58-2.52.04-3.67Z"/><path class="cls-2" d="M344.97,1100.6c-.99-.71-2.24-1.18-3.48-.98-1.3.21-2.25.82-3.15,1.77-.96,1.01-1.91,2.02-2.87,3.04-.79.83-1.11,2.39-.98,3.48.14,1.15.81,2.46,1.77,3.15.99.71,2.24,1.18,3.48.98,1.3-.21,2.25-.82,3.15-1.77.96-1.01,1.91-2.02,2.87-3.04.79-.83,1.11-2.39.98-3.48-.14-1.15-.81-2.46-1.77-3.15Z"/><path class="cls-2" d="M272.63,1100.38c-6.03.72-4.92,10.1,1.12,9.37,6.03-.72,4.92-10.1-1.12-9.37Z"/><path class="cls-2" d="M253.14,1095.17c-6.03.72-4.92,10.1,1.12,9.37,6.03-.72,4.92-10.1-1.12-9.37Z"/><path class="cls-2" d="M363.57,1119.34c-.5-1.09-1.34-2.1-2.49-2.54-1.23-.47-2.41-.45-3.67-.04-.9.29-1.81.8-2.53,1.41-1.12.94-1.72,1.8-2.45,3.05-.57.99-.45,2.66-.04,3.67.43,1.05,1.41,2.13,2.49,2.54,1.16.44,2.51.57,3.67.04.35-.2.71-.4,1.06-.61.37-.29.68-.63.95-1,.06-.1.15-.18.21-.27.07-.03.13-.07.21-.09,1.08-.35,2.1-1.48,2.54-2.49.47-1.07.54-2.59.04-3.67Z"/><path class="cls-2" d="M229.45,1165.14c-1.17-2.54-3.6-3.3-6.16-2.58-2.56.72-4.61,2.26-6.47,4.11-.8.79-1.1,2.42-.98,3.48.14,1.15.81,2.46,1.77,3.15.99.71,2.24,1.18,3.48.98,1.32-.22,2.21-.84,3.15-1.77-.97.96.09,0,.32-.18.15-.11.31-.22.47-.33.03-.01.04-.02.07-.04.19-.09.38-.18.57-.25.39-.16.79-.28,1.19-.4,1.06-.3,2.12-1.52,2.54-2.49.47-1.08.54-2.59.04-3.67Z"/><path class="cls-6" d="M264.61,1182.41c-.29-.44-.58-.89-.88-1.33-.36-.51-.81-.9-1.36-1.17-.5-.36-1.07-.58-1.69-.65-.65-.12-1.27-.07-1.88.14-.62.1-1.18.36-1.68.76-.92.77-1.69,1.83-1.82,3.06,0,.42-.01.84-.02,1.27.1.85.41,1.61.92,2.29.29.44.58.89.88,1.33.36.51.82.9,1.36,1.17.5.36,1.07.58,1.69.65.65.12,1.27.07,1.88-.14.62-.1,1.18-.36,1.68-.77.92-.76,1.69-1.83,1.82-3.06,0-.42.01-.84.02-1.27-.1-.85-.41-1.61-.92-2.29Z"/><path class="cls-6" d="M360.55,1153.73c-.22-.59-.56-1.09-1.03-1.49-.39-.47-.88-.82-1.46-1.05-.39-.11-.78-.23-1.18-.34-.86-.12-1.69-.02-2.49.3-.33.19-.65.37-.98.56.38-.56.66-1.18.72-1.85.06-.63.11-1.26.17-1.89.09-.99-.05-1.97-.48-2.85.59-.58,1.04-1.29,1.26-2.11.41-.78.59-1.56.61-2.35.07-.08.16-.13.23-.21,2.53-3.19,1.09-8.43-2.93-9.65-2.36-.71-5.23-.12-6.21,2.45-.16.42-.24.89-.28,1.37-.69.92-1.05,2.06-.78,3.21.09.4.19.8.28,1.21-.22.64-.33,1.33-.26,2.07.04.42.08.84.12,1.27.05.55.23,1.07.49,1.56-.72.72-1.3,1.63-1.39,2.65-.04.47-.08.94-.12,1.4-.48-.76-1.24-1.31-2.13-1.62-.95-4.2-7.31-6.16-8.73-1.24-5.69,19.63-23.24,33.85-44.4,33.04-5.46-.21-7.14,7.44-2.87,9.03-.48.28-.92.62-1.25,1.04-.54.69-.82,1.43-.93,2.17-.14-.6-.4-1.17-.79-1.65-.77-.94-1.82-1.66-3.06-1.82-.97-.12-1.95-.25-2.92-.37-1.23-.16-2.56.15-3.55.91-.9.69-1.7,1.91-1.82,3.06-.11,1.06.06,2.19.63,3.12-.16.23-.3.48-.39.75-.36,1-.72,2-1.08,3-.43,1.2-.53,2.46-.04,3.67.43,1.05,1.41,2.13,2.49,2.54,1.16.44,2.51.57,3.67.04,1.08-.5,2.13-1.34,2.54-2.49.36-1,.72-2,1.08-3,.26-.71.37-1.44.34-2.17.43-.16.84-.35,1.2-.62.9-.69,1.7-1.91,1.82-3.06,0-.05,0-.09,0-.14.26.98.82,1.92,1.61,2.69,2.42,2.37,5.7,4.07,9.08,2.97.26.07.53.11.79.14.01.54.1,1.07.34,1.54.47.9.94,1.8,1.4,2.71.58,1.12,1.3,2.03,2.49,2.54,1.07.47,2.59.54,3.67.04,1.09-.5,2.1-1.34,2.54-2.49.43-1.12.62-2.55.04-3.67-.47-.9-.93-1.8-1.4-2.71-.25-.49-.54-.93-.88-1.32.92-.76,1.61-1.73,2.18-2.84,1.42-2.77-.15-5.08-2.39-5.96,2.6-.65,5.13-1.48,7.58-2.49-.36,1.22-.25,2.6.63,3.94,1.89,2.88,4,5.57,7.86,4.47.75-.21,1.37-.56,1.9-.99,1.11.1,2.06-.15,3.2-.58,1.4-.53,2.39-1.82,2.76-3.24.26-.07.52-.15.78-.27,1.09-.49,2.12-1.44,2.75-2.51.96-.13,2.17-.79,2.7-1.14.54-.34,1.01-.76,1.43-1.25.15-.08.36-.19.66-.39.39-.17.75-.39,1.08-.64.15.15.27.32.44.45l1.19.94c.48.41,1.02.67,1.62.79.59.23,1.21.29,1.85.19.65-.05,1.23-.26,1.76-.62.56-.26,1.02-.64,1.39-1.15.21-.35.41-.69.62-1.04.34-.78.46-1.6.36-2.44-.11-.41-.21-.82-.32-1.23-.32-.77-.8-1.41-1.45-1.92l-.42-.33c.58-.21,1.12-.5,1.6-.86.02,0,.04,0,.07.01,2.3.22,5.3-1.3,5.37-3.96.01-.39,0-.76,0-1.13.53-.62.91-1.38,1.06-2.27.1-.56.09-1.07.03-1.56.72-1.09.91-2.44.88-3.87.72.27,1.45.38,2.22.29,1.13-.25,1.96-.47,2.89-1.2.87-.68,1.41-1.42,1.89-2.4.28-.58.39-1.18.35-1.81.06-.64-.04-1.26-.31-1.86Z"/><path class="cls-6" d="M260.64,1162.28c-5.45-2.89-10.13-7.33-13.18-12.72-1.26-2.23-3.57-3.61-6.16-2.58-.11.05-.22.12-.33.18-.67-.1-1.38-.09-2.15.07-2.05.42-3.27,1.48-3.89,2.85-1.01-1.03-2.44-1.62-3.93-1.44-1.94.23-3.97,1.94-4.11,3.98-.11,1.66-.04,3.14.55,4.72,0,.02.02.04.03.06-.01.04-.02.07-.03.11-1.79.81-2.95,3.05-2.73,4.91.04.35.12.68.22.99-.48.42-.87.91-1.16,1.56-.47,1.08-.54,2.59-.04,3.67.5,1.09,1.34,2.1,2.49,2.54,1.12.43,2.56.63,3.67.04.67-.36,1.34-.71,2.01-1.07.25.37.54.72.92.99.96.69,2.27,1.23,3.48.98.54-.12,1.09-.16,1.64-.18,2.02.17,3.73-.77,4.63-2.3.4.3.82.57,1.25.81-1.26,1.16-1.67,2.99-1.29,4.64-1.79.61-3.23,1.75-4.56,3.07-.8.79-1.1,2.43-.98,3.48.14,1.15.81,2.46,1.77,3.15.99.71,2.24,1.18,3.48.98.41-.11.82-.21,1.23-.32.5-.21.92-.51,1.31-.85-.03.03-.07.07-.1.1.25-.23.54-.41.82-.61.33-.15.65-.31,1-.41.74-.21,1.47-.87,1.99-1.58.22.13.45.27.67.4.78.34,1.6.46,2.44.36l.71-.08c.65-.05,1.23-.26,1.76-.62.56-.26,1.02-.64,1.39-1.15.41-.48.67-1.02.79-1.62.23-.59.29-1.21.19-1.85-.11-.41-.21-.82-.32-1.23-.14-.35-.33-.66-.55-.96.05-.04.12-.07.17-.11.27-.13.54-.26.83-.36,1.47-.51,2.52-1.93,2.84-3.47,3.95-.48,5.66-6.74,1.23-9.09Z"/><path class="cls-6" d="M281.74,1164.29c-2.43-.46-4.48-1.48-6.54-3.21-1.95-1.65-5.09-1.16-6.63.79-1.63,2.07-1.16,4.98.79,6.63,3.15,2.66,6.92,4.36,10.96,5.13,2.5.48,5.01-1.51,5.37-3.96.39-2.61-1.45-4.89-3.96-5.37Z"/><path class="cls-6" d="M326.56,1139.08c-2.12-1.52-4.95-1.24-6.63.79-1.05,1.27-2.1,2.53-3.14,3.8-1.58,1.91-1.24,5.17.79,6.63,2.12,1.52,4.95,1.24,6.63-.79,1.05-1.27,2.1-2.53,3.14-3.8,1.58-1.91,1.24-5.17-.79-6.63Z"/><path class="cls-6" d="M510.73,1308.72c-1.85-1.64-5.19-1.19-6.62.79-1.45,2.01-1.21,4.45.39,6.2,0,0,.01.02.02.03-.02.09-.03.17-.06.26-.28,1.12.23,2.67.9,3.55.68.9,1.91,1.7,3.05,1.82,2.75.29,4.72-1.39,5.36-3.96.82-3.23-.67-6.55-3.06-8.68Z"/><path class="cls-9" d="M495.36,1322.53c-1.33-5.85-10.71-4.8-9.36,1.12,13.51,59.28,2.8,119.93-7.75,178.78-10.78,60.18-28.98,117.18-49.82,174.54-2.07,5.69,6.57,9.46,8.65,3.76,21.12-58.13,39.56-115.9,50.49-176.89,10.68-59.6,21.46-121.27,7.78-181.31Z"/><path class="cls-9" d="M519.2,1420.32c-12.15-2.06-24.5,3-31.69,13.05-7.41,10.36-6.84,22.51-3.32,34.03.03,1.35.27,2.85.76,4.55,1.41,4.8,7.52,3.03,8.67-.96.32-.53.55-1.14.6-1.84.05-.71.1-1.43.15-2.16,3.75-1.66,19.45.94,20.94,1.28,6.01,1.35,11.91,3.29,17.6,5.64,11.4,4.7,21.63,11.34,30.92,19.4,3.33,2.89,7.68-.87,7.42-4.53-1.17-15.91-11.16-29.79-20.24-42.33-8.14-11.26-17.21-23.65-31.81-26.12ZM539.44,1446.24c-.78-.71-1.57-1.4-2.37-2.09.11-.16.21-.34.31-.51.7.86,1.39,1.72,2.06,2.6Z"/><path class="cls-9" d="M470.68,1541.33c-.03-.39-.09-.79-.22-1.19-9.32-29.23-22.28-58.54-50.96-73.19-2.71-1.38-6.15.75-6.54,3.62-4.74,35.13,14.77,68.31,48.11,80.6.91.33,1.75.37,2.53.23.2.12.39.25.59.37,2.22,1.25,5.26-.29,6.2-2.45.45-1.04.48-2.05.22-2.97,1.04-1.49,1.28-3.45.05-5.02Z"/><path class="cls-7" d="M480.42,1157.9c-8.67-7.71-22.38-5.8-27.6,4.81-5.48,11.14-4.51,26.97-3.86,39.03.8,14.75,3.21,30.75,10.86,43.57,2.51,4.21,6.46,4.84,9.86,3.41,9.12,3.61,16.08-7.63,18.49-15.44,4-12.98,5.46-26.68,4.32-40.23-.96-11.39-3-27.1-12.08-35.16Z"/><path class="cls-7" d="M522.72,1172.35c-13.97-7.71-21.92,12.23-25.44,21.96-5.28,14.62-7.05,29.95-5.73,45.41.53,6.18,5.67,8.6,10.43,7.9,2.35,1.2,5.26,1.44,8.1.59,7.13-2.13,8.88-9.29,11.14-15.54,2.58-7.16,5.3-14.29,7.29-21.65,2.94-10.87,6.59-31.84-5.79-38.67Z"/><path class="cls-7" d="M636.44,1199.94c-16.81,6.66-33.64,13.76-48.81,23.7,5.96-9.47,11.01-20.3,10.68-29.91-.08-2.19-2.04-5.02-4.2-5.65-14.38-4.15-27.95,8.88-36.27,19.04-11.53,14.1-22.89,29.63-29.9,46.52-1.86,4.48.95,8.14,4.5,9.35-.29,3.6,2.61,6.94,6.4,7.56-6.07,1.65-5.56,10.32-.43,13.24,10.67,6.07,24.68,2.27,35.73-1.05,11.19-3.37,21.87-8.81,31.36-15.63,19.67-14.16,35.71-35.57,40.61-59.57,1.1-5.41-4.88-9.5-9.67-7.6Z"/><path class="cls-7" d="M610.28,1328.83c-22.75-19.3-50.83-29.24-80.55-29.54-4.1-.04-5.96,2.8-5.97,5.94-2.21,2.44-2.73,6.68-.85,9.56,8.91,13.7,22.94,22.04,37.56,28.59,7.45,3.34,15.29,7.26,23.64,7.07,9.71-.23,18.12-5.36,26.08-10.42,4.01-2.55,3.31-8.47.1-11.19Z"/><path class="cls-7" d="M517.64,1341.17c-1.92-7.09-5.43-13.48-9.41-19.6-2.86-4.4-6.18-10.92-11.7-12.35-.29-.08-.56-.13-.84-.18-3.95-1.58-8.93-.17-9.2,5.2,0,.18-.02.36-.03.54-1.03,3.63-.85,8.28-.32,12.15.02,21.28,3.65,41.87,19.68,57.79,4.22,4.19,10.14-.03,11.36-4.5,3.23-11.84,3.67-27.13.45-39.04Z"/><path class="cls-7" d="M462.46,1303.27c-1.51-3.99-6.38-6.87-10.82-3.54-12.05,9.04-26.24,17.47-34.87,30.13-8.53,12.53-15.04,26.83-21.38,40.55-1.82,3.93.91,9.44,5.43,9.81,15.71,1.28,29.39-14.44,39.53-24.62,11.45-11.49,24.67-24.22,25.23-41.56.13-3.93-.46-8.21-3.11-10.78Z"/><path class="cls-7" d="M456.49,1249.66c-19.24-21.92-42.58-39.22-69.25-51.06-4.01-1.78-9.35.88-9.81,5.43-1.51,15.17,15.88,25.12,26.69,32.84,6.42,4.58,13.17,8.64,20.32,11.99,7.18,3.37,14.13,6.07,19.9,11.72.21.2.42.34.63.51-16.7-7.85-33.4-15.71-50.1-23.56-15.64-7.35-32.22-18.03-49.43-20.85-2.85-.47-6.57,1.27-7.54,4.18-5.98,17.93,19.62,24.12,31.66,29.65,15.46,7.1,31.02,13.97,46.66,20.64-10.45-.71-20.98-.11-31.41,1.95-9.96,1.96-19.79,5.05-28.95,9.45-4.28,2.05-8.89,4.26-12.52,7.35-3.13,2.66-4.31,6.63-7.18,9.3-.37.35-.69.72-.97,1.1-1.24.89-2.48,1.81-3.69,2.78-4.6,3.69-3,11.85,3.21,12.63,37.08,4.67,70.86-18.58,107.65-13.98,4.94.62,7.79-3.29,7.9-7.14,1.32-1.84,1.41-4.54.47-6.89,2.6-3.4,2.55-8.65-2.6-10.32-2.85-.93-5.73-1.75-8.62-2.48.13-.19.27-.37.38-.57.5.24,1,.47,1.5.7,8.09,3.81,13.6-8.56,6.08-12.7,2.11.45,4.18-.46,5.66-2.07,4.17-1.49,7.09-6.33,3.36-10.58Z"/><path class="cls-3" d="M556.08,1168.4c-1.61-4.25-7.28-5.71-10.81-2.96-24,18.63-40.16,44.78-46.3,74.51-.92,4.43,2.07,7.17,5.54,7.72,1.5,1.85,4.08,2.55,6.41,2.57,17.77.16,32.08-14.58,40.47-28.95,9.48-16.26,11.38-35.26,4.7-52.89Z"/><path class="cls-3" d="M447.7,1253.92c-2.6-.97-5.18-1.97-7.76-2.96.41-2.84-.54-5.97-3.6-7.78-17.9-10.63-35.69-21.97-54.2-31.51-9.04-4.66-32.81-14.4-37.43.81-2.01,6.63,2.98,11.74,8.21,14.94,8.81,5.4,18.73,9.51,28.08,13.89,20,9.37,40.38,17.85,61.06,25.58,8.51,3.18,14.17-9.78,5.63-12.97Z"/><path class="cls-3" d="M428.24,1262.09c-17.04-6.76-35.19-16.63-53.62-18.55-18.14-1.89-37.53,1.8-55.4,4.64-7.75,1.23-8.29,12.77-.21,14.01,17.06,2.62,32.02,12.01,48.84,15.63,18.01,3.87,37.33,3.59,55.67,4.83,6.41.43,9.18-5.51,7.24-9.88,2.54-3.34,2.5-8.69-2.52-10.68ZM353.63,1258.71c-.82-.31-1.65-.63-2.47-.94,1.15-.11,2.29-.21,3.44-.29-.37.38-.69.8-.97,1.24Z"/><path class="cls-3" d="M616.03,1187.5c-11.96,3.89-20.06,13.47-28.55,22.24-8.16,8.43-17.18,16.44-21.64,27.55-.08.19-.1.38-.17.57-8.97,6.83-17.94,13.66-26.91,20.49-7.24,5.51,1.28,16.8,8.54,11.27,15.73-11.97,31.46-23.95,47.18-35.92,13.48-10.27,24.52-20.69,30.71-36.84,2.3-5.99-3.28-11.28-9.16-9.36Z"/><path class="cls-3" d="M654.07,1288.65c-8.27-17.9-26.82-23.9-45.39-23.9-11.63,0-23.33,1.38-34.69,3.83-8.17,1.76-15.69,3.6-22.11,8.44-6.05.52-9.01,10.31-2.09,13.66.26.13.53.22.79.34-3.52.82-7.02,1.73-10.51,2.67-8.61,2.32-3.51,14.97,4.93,13.16.98,1.47,2.47,2.66,4.45,3.18,9.62,2.53,19.5,6.01,29.45,6.91,9.97.9,19.89-.72,29.68-2.44,5.49-.97,9.02-9,3.53-12.58-6.02-3.92-12.06-7.57-18.52-10.15.44-.05.87-.11,1.31-.16,17.09-1.98,34.13-1.57,49.8,6.2,5.45,2.7,11.91-3.65,9.36-9.16Z"/><path class="cls-3" d="M558.94,1339.67c-13.36-8.53-22.48-21.81-36.93-28.32-1.2-.98-2.63-1.48-4.08-1.59-8.4-2.54-13.86,10.13-5.34,13.04.19.06.37.15.55.21,9.23,14.88,22.95,25.12,40.37,29.21,6.72,1.58,11.32-8.79,5.42-12.55Z"/><path class="cls-3" d="M449.98,1303.08c1.82-4.56-.87-10.86-7.05-9.75-14.12,2.53-29.19,4.36-42.78,9.08-12.6,4.38-22.15,13.89-31.35,23.14-3.85,3.87-.32,10.68,4.5,11.36,9.72,1.36,19.97-.45,29.7-3.29,8.08-1.6,15.8-4.67,23.51-7.97,1.6-.68,2.69-1.72,3.36-2.92,6.9-4.01,13.14-8.98,18.5-15.22,1.23-1.43,1.68-2.97,1.6-4.45Z"/><path class="cls-3" d="M478.93,1306.63c-4.12-2.26-9.91-.77-10.63,4.75-1.25,9.51-1.87,19.04-1.88,28.63,0,6.19.86,14.13,8.9,14.11,7.63-.02,8.66-9.07,9.66-14.78,1.53-8.78,1.74-17.74,1.1-26.62-.29-3.94-3.73-6.1-7.14-6.09Z"/><path class="cls-4" d="M546.57,1265.45c-1.34-1.61-2.7-3.23-4.07-4.84-2.89-4.91-3.47-10.95-7.45-14.94-1.86-1.86-4.02-2.91-6.29-3.33-1.35-2.79-4.26-5.22-7.18-5.37-7.94-.4-13.15-5.89-20.68-6.99-5.02-.74-8.51.95-11.88,3.02-6.61-.16-12.48-.08-19.45,3.99-1.73,1.01-3.3,2.15-4.75,3.38-2.87.61-5.71,1.6-8.53,3.49-5.91,3.97-9.88,10.23-10.51,17.32-2.64,2.19-4.9,3.58-5.8,7.57-.82,3.66-.51,8.92.72,12.47,1.68,4.86,5.6,7.23,9.75,7.25,2.6,2.55,6.54,3.73,10.08,2.04,12.88-6.15,26.29-10.42,40.49-12.16,7.51-.92,12.3-.59,19.15,2.33,5.6,2.39,11.33,4.07,17.32,5.17,7.61,1.4,11.49-5.64,10.24-11.51,1.21-2.82,1.15-6.11-1.15-8.89Z"/><path class="cls-10" d="M541.19,1272.82c-.05-.05-.11-.09-.16-.14-.1-.15-.2-.3-.3-.46-.18-.25-.39-.45-.6-.67-.21-.94-.6-1.86-1.21-2.7-2.71-3.72-6.9-6.25-11.43-6.99l-.36-1.38c-.48-1.15-1.2-2.11-2.18-2.88l-.54-.32c-.2-.44-.44-.87-.74-1.29-3.54-4.94-9.76-6.16-14.96-4.21-.24-.25-.44-.52-.72-.73-.4-.31-.79-.62-1.19-.93-.72-.61-1.53-1-2.43-1.18-.81-.31-1.65-.38-2.51-.29-3.36-2.22-7.48-2.87-11.52-1.72-.62,0-1.25-.02-1.87-.03-1.27.16-2.41.62-3.43,1.38-.82.5-1.64.99-2.46,1.49-.7.49-1.22,1.11-1.62,1.84-1.37-.64-2.78-.8-4.13-.55-2.68-1.44-5.73-1.94-8.86-.57-3.05,1.34-4.99,4.02-5.6,6.94-.09.03-.17.05-.26.08-2.16.63-4.16,3.27-4.32,5.49-.14,2.01-.03,3.27.56,5.18.05.16.14.3.2.46-.42.82-.73,1.7-.95,2.63-.21,0-.4,0-.62,0-2.18.08-4.12,1.65-5.18,3.43-.54.75-.86,1.6-.97,2.54-.15,1.01-.08,1.99.19,2.94-.83-.03-1.65.1-2.44.45-.89.33-1.63.84-2.24,1.54-.71.59-1.23,1.32-1.57,2.19-.67,1.73-.86,3.76-.06,5.49.3.53.61,1.06.91,1.59.3.39.63.72,1,1.02-.1.67-.16,1.36-.13,2.07.31,8.44,6.76,11.09,14.03,12.29,2.75,1.81,5.96,3.01,9.36,3.61,3.72.66,7.5-.21,11.15.39,3.49.58,6.29,2.17,9.98,2.26,4.04.1,7.57-.45,11.56.33,3.82.75,7.24,1.39,11.16.96,6.7-.75,14.64-2.57,18.07-8.77.74-1.33.85-2.76.55-4.1,1.55-.04,2.88-.53,4.31-1.37,2.23-1.31,4.17-3.61,5.24-6.03,1.78.27,3.64-.13,5.25-1.3,7.32-5.31,2.13-18.45-5.95-19.99Z"/><path class="cls-6" d="M467.22,1289.26c.17-.36-.93-1.03-1.45-1.57-.86-.89-1.66-1.84-2.42-2.82-1.52-1.97-2.77-4.08-3.84-6.32-.64-1.34-1.82-2.15-3.11-2.5-.08-.72-.3-1.36-.63-1.92,1.35-2.95-.45-7.37-4.67-6.87-3.14.38-4.32,3.09-3.9,5.51-.43-1.07-1.42-2.04-2.46-2.49-1.07-.47-2.58-.54-3.66-.04-1.09.5-2.1,1.33-2.54,2.49-.34.9-.46,1.82-.3,2.74,0,.27,0,.54-.01.81.1.84.41,1.61.92,2.29.2.3.39.59.59.89l.43,3.56c.05.65.26,1.23.62,1.75.26.56.64,1.02,1.15,1.39.48.41,1.02.67,1.62.79.29.11.58.18.87.21l.02.19c.05.65.26,1.23.62,1.76.26.56.64,1.02,1.15,1.39.23.2.48.36.74.49-.23.65-.33,1.33-.22,2.01.18,1.08.65,2.05,1.43,2.81-.03.05-.05.1-.08.15-.03.06-.07.12-.1.19-.11.19-.19.38-.27.58-.43.15-.85.29-1.28.44-2.34.8-3.6,3.93-2.58,6.15,1.12,2.43,3.65,3.44,6.15,2.58.52-.18,1.03-.35,1.55-.53.5.3,1.04.51,1.62.6.3,1.53,1.33,2.96,2.76,3.51,2.5.96,5.02-.09,6.2-2.45.58-1.15,1.15-2.3,1.73-3.44.14-.29.24-.59.31-.9,2.44.37,4.61-1.78,4.96-4.3.91-.53,1.65-1.4,2.1-2.31.07-.14.15-.29.22-.43,1.76-3.49-1.19-6.26-4.25-6.37Z"/><path class="cls-6" d="M454.16,1259.09c-.32-.77-.8-1.41-1.45-1.92-.34-.21-.69-.41-1.03-.62-.78-.34-1.59-.45-2.44-.36l-.53.06c-.65.05-1.23.26-1.75.62-.56.26-1.02.64-1.39,1.15-.41.48-.67,1.02-.79,1.62-.23.59-.29,1.21-.19,1.85.11.41.21.82.32,1.22.32.77.8,1.41,1.45,1.92.34.21.69.41,1.03.62.78.34,1.59.45,2.44.36l.53-.06c.65-.05,1.23-.26,1.75-.62.56-.26,1.02-.64,1.39-1.15.41-.48.67-1.02.79-1.62.23-.59.29-1.21.19-1.85-.11-.41-.21-.82-.32-1.22Z"/><path class="cls-6" d="M491.31,1306c-.17-.1-.34-.2-.51-.3.61-1.77.3-3.78-1.57-4.92-.22-.13-.44-.27-.66-.4.02-1.66-.73-3.33-2.62-4.28-2.98-1.5-6.2-2.27-9.37-.85-1.29.58-2.28,1.83-2.71,3.22-2.56.32-4.61,2.94-4.27,5.47-.02.02-.04.04-.06.06-.02.02-.04.05-.06.07,0,.01-.02.03-.02.04-.21.34-.41.69-.62,1.04-.02.03-.03.07-.05.11-.09.22-.3.99-.35,1.22-.06.27-.03.5-.03.79,0,.27-.04.55,0,.82.11.41.21.82.32,1.22,0,.02,0,.03.01.05.01.03.02.06.03.09,0,.01.01.03.02.04.2.35.4.71.61,1.06.02.03.04.06.07.09.1.13.75.79.88.89.03.02.06.05.09.07.48.41,1.02.67,1.62.79.59.23,1.21.29,1.85.19.65-.05,1.23-.26,1.75-.62.01,0,.02-.02.04-.02.49-.16.96-.37,1.38-.69.15-.14.29-.29.44-.43,1.3.69,2.63,1.31,3.99,1.87-.02.3-.05.61-.01.92l.13,1.06c.05.65.26,1.23.62,1.75.26.56.64,1.02,1.15,1.39.48.41,1.02.67,1.62.79.59.23,1.21.29,1.85.19.41-.11.82-.21,1.22-.32.77-.32,1.41-.8,1.92-1.45.21-.34.41-.69.62-1.03.17-.38.28-.78.34-1.18,1.4-.54,2.58-1.79,2.95-3.17.66-2.45-.53-4.38-2.61-5.61Z"/><path class="cls-6" d="M550.39,1268.63c.48-.34.85-.76,1.14-1.23.11-.11.23-.2.32-.32l.47-.59c.41-.48.67-1.02.79-1.62.23-.59.29-1.21.19-1.85-.05-.65-.26-1.23-.62-1.75-.26-.56-.64-1.02-1.15-1.39-.34-.21-.69-.41-1.03-.62-.78-.34-1.59-.45-2.44-.36-.41.11-.82.21-1.22.32-.5.21-.93.51-1.32.87-.11-.06-.21-.13-.32-.19-.18-.08-.37-.1-.56-.16,1.89-2.91.13-7.97-4.36-7.43-5.14.62-5.07,7.5-1.19,9.07,0,0,0,0,0,0-.41.48-.67,1.02-.79,1.62-.23.59-.29,1.21-.19,1.85.11.41.21.82.32,1.22.04.11.12.19.16.29-1.59.11-3.09.94-3.72,2.71-2.28,6.35-4.82,12.19-10.61,16.05-4.52,3.01-9.08,5.22-12.72,9.39-1.88,2.16-1.22,4.57.41,6.06-.23,1.18.06,2.36.71,3.33-1.54,3.09.2,7.68,4.48,6.83,1.24-.24,2.5-.6,3.76-1.01.09.52.25,1.02.56,1.45.26.56.64,1.02,1.15,1.39.48.41,1.02.67,1.62.79.59.23,1.21.29,1.85.19.41-.11.82-.21,1.22-.32.77-.32,1.41-.8,1.92-1.45.21-.35.41-.69.62-1.03.34-.78.45-1.59.36-2.44l-.13-1.06c-.04-.54-.22-1.03-.48-1.49,1.12-.66,2.22-1.35,3.28-2.09,1.59.88,3.58.89,5.13-.31.82-.63,1.64-1.27,2.47-1.9.94-.73,1.64-1.87,1.82-3.05.11-.75,0-1.61-.28-2.39.55-.08,1.06-.26,1.51-.57.56-.26,1.02-.64,1.39-1.15.39-.45.63-.97.76-1.54.35.04.71.06,1.08.01l1.59-.19c1.2-.14,2.4-.82,3.14-1.77.41-.48.67-1.02.79-1.62.23-.59.29-1.21.19-1.85-.2-1.2-.75-2.41-1.77-3.14-.07-.05-.14-.08-.21-.13.23-.37.41-.75.5-1.18.23-.59.29-1.21.19-1.85-.11-.41-.21-.82-.32-1.22-.14-.33-.33-.62-.53-.9.33-.17.66-.34.96-.56,1.52-1.1,2.33-2.64,2.76-4.42.27-1.13-.23-2.66-.9-3.55-.62-.82-1.68-1.52-2.73-1.74Z"/><path class="cls-6" d="M513.54,1280.85c-.88-1.17-2.29-1.94-4.13-1.72-2.06.25-4.12.49-6.17.74-.01,0-.02,0-.03,0l-7.29.87c-1.94.23-3.13,1.36-3.66,2.75-.53.05-1.04.14-1.58.18-3.23.25-4.41,2.93-3.88,5.38-1.01,2.6-.05,5.91,3.5,6.19,9.12.72,17.99-.94,26.04-5.36,4.95-2.72,2.2-10.67-2.78-9.04Z"/><path class="cls-6" d="M475.74,1270.8c-.07.01-.57.17-.77.04-2.4-1.59-5.18-.8-6.63.98-1.88-1.01-4.58-.25-5.84,1.36-1.72,2.19-1.03,4.82.79,6.62,1.79,1.77,3.88,3.13,6.15,4.21,1.88.9,3.74.26,5.02-1,1.54-.37,2.69-1.46,3.22-3.06,5.04-1.61,3.78-10.02-1.93-9.15Z"/><path class="cls-6" d="M490.07,1269.06c-6.02.72-4.91,10.08,1.12,9.36,6.02-.72,4.91-10.08-1.12-9.36Z"/></svg>